<?xml version="1.0" encoding="UTF-8" standalone="no"?>
<svg
   xmlns:dc="http://purl.org/dc/elements/1.1/"
   xmlns:cc="http://creativecommons.org/ns#"
   xmlns:rdf="http://www.w3.org/1999/02/22-rdf-syntax-ns#"
   xmlns:svg="http://www.w3.org/2000/svg"
   xmlns="http://www.w3.org/2000/svg"
   xmlns:sodipodi="http://sodipodi.sourceforge.net/DTD/sodipodi-0.dtd"
   xmlns:inkscape="http://www.inkscape.org/namespaces/inkscape"
   id="svg"
   version="1.1"
   width="400"
   height="400"
   viewBox="0, 0, 400,400"
   sodipodi:docname="ionic.svg"
   inkscape:version="1.0.1 (3bc2e813f5, 2020-09-07)">
  <metadata
     id="metadata10">
    <rdf:RDF>
      <cc:Work
         rdf:about="">
        <dc:format>image/svg+xml</dc:format>
        <dc:type
           rdf:resource="http://purl.org/dc/dcmitype/StillImage" />
      </cc:Work>
    </rdf:RDF>
  </metadata>
  <defs
     id="defs8" />
  <sodipodi:namedview
     pagecolor="#ffffff"
     bordercolor="#666666"
     borderopacity="1"
     objecttolerance="10"
     gridtolerance="10"
     guidetolerance="10"
     inkscape:pageopacity="0"
     inkscape:pageshadow="2"
     inkscape:window-width="1920"
     inkscape:window-height="1016"
     id="namedview6"
     showgrid="false"
     inkscape:zoom="0.76190756"
     inkscape:cx="-139.25044"
     inkscape:cy="10.106873"
     inkscape:window-x="0"
     inkscape:window-y="27"
     inkscape:window-maximized="1"
     inkscape:current-layer="svg" />
  <g
     id="svgg">
    <path
       id="path0"
       d="m 189.2,60 c -37.15715,4.353261 -67.77646,37.514472 -70.00411,75.10655 -1.46506,24.72329 8.04715,49.8856 26.20411,66.49345 9.90102,8.42042 20.43677,14.50518 33.144,18 20.76262,5.69463 43.98206,2.77008 62.40722,-8.19713 7.43394,-4.33725 15.73226,-10.69375 21.37084,-18.00785 11.83151,-14.09879 18.68326,-32.13495 18.94094,-50.59502 0.13365,-12.76506 -2.2211,-25.8966 -7.91667,-37.51095 -2.5311,2.01331 -4.86533,3.07794 -12.31498,9.06332 14.17894,40.98874 -5.36977,73.52346 -34.23135,86.04763 -26.64529,12.94054 -61.00419,3.8463 -78.52772,-19.8497 -17.99601,-22.55149 -17.94771,-57.28831 0.32772,-79.5853 17.61862,-23.705589 52.49052,-32.703497 78.91725,-19.05825 4.15924,-5.044333 6.20187,-7.233174 10.71548,-12.511042 C 224.32777,61.872006 203.30007,58.699091 189.2,60 Z m 59,13.564 c -14.42288,3.125175 -17.49865,25.287244 -4.217,32.036 10.18172,5.95983 25.26368,-0.53464 26.30437,-12.899875 C 271.88723,80.623534 260.00989,70.47924 248.2,73.564 Z M 192.6,104 c -19.6567,3.39107 -32.76371,24.35267 -29.25,43.9 3.87822,21.57514 27.53403,35.46728 48.25,28.7 17.34044,-5.6646 28.24181,-24.57528 25.072,-42.496 -3.40809,-19.26783 -22.69381,-33.61155 -41.94212,-30.39512 z m -77,162.743 C 96.02682,269.62446 82.175133,288.80007 84.502375,308.34375 86.675453,326.59279 101.85466,340.49556 121.8,340.6 c 19.94534,0.10444 37.8382,-18.31957 36.79369,-39.09599 C 157.47764,279.30461 136.85647,263.61374 115.6,266.743 Z m 65.85594,8.56507 c -0.55464,-3.83988 -0.16887,-5.41211 -0.2563,-7.70807 -4.23235,0.56759 -10.71004,-1.11016 -13.59964,0.80018 V 339.6 h 17.987 c 0.35211,-15.63222 -0.51814,-31.36217 1.02873,-46.91244 5.1822,-10.16394 22.63614,-15.8896 29.18427,-4.03256 5.79582,12.97515 2.64332,27.70564 3.4,41.54752 0.0365,4.96309 -0.12032,5.99038 0.20756,9.19384 5.37008,-0.004 12.98303,0.10621 17.43319,-0.11206 -0.52293,-16.65819 0.89368,-34.83074 -1.24075,-51.3173 -2.18763,-14.19379 -16.59176,-23.27641 -30.44824,-21.53837 l -4.09419,0.29831 c -14.86014,1.93594 -19.60163,8.58113 -19.60163,8.58113 z M 306.4,266.753 c -21.04338,2.066 -36.48355,24.64542 -31.064,45.044 2.83435,17.58159 20.66885,29.93221 38.6593,28.79677 11.35044,-0.71637 21.86755,-6.7812 28.21826,-15.61172 -3.81209,-2.54691 -7.53487,-5.28575 -12.5814,-8.29478 -1.83618,1.87547 -3.42195,3.06391 -8.43216,6.11273 -10.01117,6.09202 -28.70484,-2.32636 -29.50822,-16.08972 -1.87504,-12.28447 7.81264,-23.39172 20.95636,-24.22323 10.61863,-0.67176 16.01241,5.8423 17.6827,9.68183 4.82486,-3.47689 6.8538,-5.34277 10.73119,-8.09224 -2.15112,-4.86902 -5.50697,-9.09514 -9.46203,-11.67664 -7.44373,-4.85857 -16.39451,-7.09965 -25.2,-5.647 z M 57.6,303.6 v 36 h 18 v -72 h -18 z m 190,0 v 36 h 18 v -72 h -18 z M 128.401,283.235 c 15.97872,5.99383 17.82548,30.61164 3.399,39.165 -11.77329,8.55522 -29.00635,-1.47317 -30.10884,-15.36192 -2.571508,-13.772 10.50921,-28.21555 24.6575,-24.21875 z"
       style="fill:#4c8cfc;fill-opacity:1"
       sodipodi:nodetypes="csccccccccccccccccccsssccsszssccccccccccccccccsccscsccscccccccccccccccccc" />
    <path
       id="path1"
       d=""
       stroke="none"
       fill="#508cfc"
       fill-rule="evenodd" />
  </g>
</svg>
