<?xml version="1.0" encoding="UTF-8" standalone="no"?>
<svg
   xmlns:dc="http://purl.org/dc/elements/1.1/"
   xmlns:cc="http://creativecommons.org/ns#"
   xmlns:rdf="http://www.w3.org/1999/02/22-rdf-syntax-ns#"
   xmlns:svg="http://www.w3.org/2000/svg"
   xmlns="http://www.w3.org/2000/svg"
   xmlns:sodipodi="http://sodipodi.sourceforge.net/DTD/sodipodi-0.dtd"
   xmlns:inkscape="http://www.inkscape.org/namespaces/inkscape"
   id="svg"
   version="1.1"
   width="400"
   height="281.73913043478257"
   viewBox="0, 0, 400,281.73913043478257"
   sodipodi:docname="node.svg"
   inkscape:version="1.0.1 (3bc2e813f5, 2020-09-07)">
  <metadata
     id="metadata12">
    <rdf:RDF>
      <cc:Work
         rdf:about="">
        <dc:format>image/svg+xml</dc:format>
        <dc:type
           rdf:resource="http://purl.org/dc/dcmitype/StillImage" />
      </cc:Work>
    </rdf:RDF>
  </metadata>
  <defs
     id="defs10" />
  <sodipodi:namedview
     pagecolor="#ffffff"
     bordercolor="#666666"
     borderopacity="1"
     objecttolerance="10"
     gridtolerance="10"
     guidetolerance="10"
     inkscape:pageopacity="0"
     inkscape:pageshadow="2"
     inkscape:window-width="1437"
     inkscape:window-height="748"
     id="namedview8"
     showgrid="false"
     inkscape:zoom="0.76489196"
     inkscape:cx="81.304538"
     inkscape:cy="53.165861"
     inkscape:window-x="281"
     inkscape:window-y="154"
     inkscape:window-maximized="0"
     inkscape:current-layer="svgg" />
  <g
     id="svgg">
    <path
       id="path2"
       d="M237.407 94.207 C 237.221 94.393,237.068 94.710,237.068 94.912 C 237.068 95.113,236.916 95.278,236.730 95.278 C 236.467 95.278,236.467 95.354,236.730 95.617 C 237.157 96.044,237.172 96.970,236.752 96.970 C 236.521 96.970,236.520 97.071,236.745 97.343 C 236.971 97.615,236.966 97.805,236.723 98.048 C 236.469 98.302,236.479 98.379,236.765 98.379 C 237.064 98.379,237.068 98.462,236.786 98.802 C 236.507 99.139,236.507 99.225,236.786 99.225 C 237.066 99.225,237.066 99.310,236.786 99.648 C 236.544 99.940,236.533 100.070,236.752 100.070 C 237.097 100.070,237.188 100.985,236.873 101.299 C 236.606 101.567,236.590 104.318,236.855 104.482 C 237.190 104.689,237.104 105.708,236.752 105.708 C 236.533 105.708,236.544 105.839,236.786 106.131 C 237.066 106.468,237.066 106.554,236.786 106.554 C 236.517 106.554,236.512 106.646,236.764 106.949 C 237.016 107.253,237.007 107.384,236.728 107.513 C 236.430 107.651,236.430 107.712,236.728 107.850 C 237.007 107.979,237.016 108.110,236.764 108.414 C 236.527 108.699,236.524 108.809,236.752 108.809 C 237.172 108.809,237.157 109.735,236.730 110.162 C 236.467 110.425,236.475 110.500,236.765 110.500 C 237.009 110.500,237.051 110.621,236.885 110.853 C 236.591 111.264,236.608 112.679,236.917 113.393 C 237.036 113.669,236.995 114.054,236.825 114.260 C 236.602 114.528,236.609 114.721,236.850 114.961 C 237.104 115.215,237.094 115.292,236.808 115.292 C 236.509 115.292,236.505 115.376,236.786 115.715 C 237.066 116.053,237.066 116.138,236.786 116.138 C 236.507 116.138,236.507 116.224,236.786 116.561 C 237.032 116.857,237.041 116.984,236.819 116.984 C 236.593 116.984,236.602 117.148,236.852 117.548 C 237.133 117.998,237.133 118.224,236.852 118.675 C 236.602 119.075,236.593 119.239,236.819 119.239 C 237.041 119.239,237.032 119.366,236.786 119.662 C 236.507 119.999,236.507 120.085,236.786 120.085 C 237.066 120.085,237.066 120.170,236.786 120.507 C 236.507 120.845,236.507 120.930,236.786 120.930 C 237.046 120.930,237.056 121.028,236.828 121.303 C 236.603 121.575,236.603 121.762,236.831 121.989 C 237.011 122.169,237.051 122.519,236.926 122.814 C 236.606 123.567,236.564 124.316,236.833 124.482 C 237.270 124.753,237.073 125.584,236.484 125.952 C 235.892 126.321,233.688 125.564,233.238 124.836 C 232.289 123.300,228.437 122.888,226.788 124.147 C 226.261 124.548,225.739 124.877,225.627 124.877 C 225.515 124.877,225.031 125.176,224.551 125.541 C 224.071 125.906,223.362 126.304,222.974 126.424 C 222.586 126.545,222.206 126.722,222.128 126.817 C 221.893 127.106,220.939 127.659,219.380 128.409 C 218.566 128.801,217.900 129.215,217.900 129.329 C 217.900 129.443,217.424 129.766,216.843 130.047 C 215.425 130.732,214.161 131.439,213.198 132.083 C 212.761 132.376,211.896 132.872,211.276 133.186 C 209.746 133.959,208.556 134.760,207.963 135.413 C 207.510 135.913,207.470 136.932,207.470 148.151 L 207.470 160.346 208.443 161.348 C 208.978 161.899,209.739 162.431,210.135 162.531 C 210.530 162.630,210.853 162.809,210.853 162.929 C 210.853 163.049,211.075 163.228,211.346 163.325 C 212.112 163.601,214.579 164.979,215.528 165.661 C 215.999 166.000,216.725 166.362,217.142 166.467 C 217.559 166.572,217.900 166.767,217.900 166.902 C 217.900 167.036,218.471 167.406,219.168 167.724 C 219.866 168.042,220.437 168.415,220.437 168.554 C 220.437 168.693,220.817 168.890,221.283 168.992 C 221.748 169.094,222.128 169.280,222.128 169.405 C 222.128 169.529,222.350 169.711,222.622 169.809 C 223.409 170.092,225.865 171.470,226.870 172.192 C 228.517 173.376,232.318 172.917,233.242 171.422 C 233.337 171.268,234.078 170.805,234.889 170.394 C 236.763 169.443,237.849 168.831,238.850 168.163 C 239.695 167.599,240.818 166.968,242.424 166.152 C 242.967 165.876,243.791 165.388,244.257 165.067 C 245.209 164.410,246.153 163.874,248.203 162.828 C 248.978 162.432,250.042 161.748,250.568 161.308 L 251.523 160.508 251.521 131.589 C 251.519 99.379,251.655 101.480,249.504 100.409 C 247.396 99.360,245.395 98.252,245.241 98.050 C 245.162 97.947,244.178 97.376,243.054 96.782 C 240.041 95.189,239.437 94.854,238.648 94.337 C 237.796 93.778,237.832 93.782,237.407 94.207 M109.796 123.041 C 109.175 123.428,108.351 123.899,107.963 124.086 C 107.576 124.273,106.881 124.686,106.420 125.004 C 105.432 125.684,102.959 127.049,102.255 127.302 C 101.984 127.400,101.762 127.581,101.762 127.706 C 101.762 127.831,101.381 128.016,100.916 128.118 C 100.451 128.221,100.070 128.392,100.070 128.500 C 100.070 128.607,99.595 128.940,99.013 129.241 C 98.432 129.541,97.585 130.038,97.132 130.346 C 96.256 130.940,94.267 132.041,92.178 133.088 C 90.499 133.929,89.651 134.742,89.645 135.518 C 89.643 135.867,89.498 136.152,89.324 136.152 C 89.091 136.152,89.092 136.253,89.326 136.536 C 89.658 136.936,89.616 138.327,89.253 138.913 C 89.138 139.100,89.178 139.253,89.342 139.253 C 89.748 139.253,89.720 140.188,89.302 140.606 C 89.039 140.869,89.039 140.944,89.302 140.944 C 89.684 140.944,89.768 141.960,89.405 142.184 C 89.132 142.353,89.161 143.378,89.447 143.664 C 89.770 143.987,89.664 144.891,89.302 144.891 C 89.039 144.891,89.039 144.966,89.302 145.229 C 89.729 145.656,89.744 146.582,89.324 146.582 C 89.091 146.582,89.092 146.683,89.326 146.966 C 89.658 147.366,89.616 148.757,89.253 149.343 C 89.138 149.530,89.178 149.683,89.342 149.683 C 89.748 149.683,89.720 150.618,89.302 151.036 C 89.039 151.299,89.039 151.374,89.302 151.374 C 89.724 151.374,89.746 152.283,89.334 152.695 C 89.113 152.916,89.113 153.055,89.334 153.191 C 89.738 153.441,89.730 154.475,89.324 154.475 C 89.106 154.475,89.116 154.606,89.359 154.898 C 89.641 155.237,89.636 155.321,89.337 155.321 C 89.047 155.321,89.039 155.396,89.302 155.659 C 89.713 156.070,89.751 157.012,89.356 157.012 C 89.188 157.012,89.215 157.242,89.424 157.576 C 89.706 158.027,89.706 158.253,89.424 158.703 C 89.215 159.037,89.188 159.267,89.356 159.267 C 89.751 159.267,89.713 160.209,89.302 160.620 C 89.039 160.883,89.047 160.958,89.337 160.958 C 89.636 160.958,89.641 161.042,89.359 161.381 C 89.116 161.673,89.106 161.804,89.324 161.804 C 89.729 161.804,89.736 162.724,89.334 163.125 C 89.113 163.346,89.113 163.485,89.334 163.621 C 89.750 163.878,89.724 164.905,89.302 164.905 C 89.039 164.905,89.039 164.980,89.302 165.243 C 89.729 165.670,89.744 166.596,89.324 166.596 C 89.106 166.596,89.116 166.727,89.359 167.019 C 89.552 167.252,89.884 167.442,90.098 167.442 C 90.312 167.442,90.486 167.558,90.486 167.700 C 90.486 167.842,91.025 167.654,91.684 167.281 C 92.343 166.908,93.073 166.516,93.305 166.409 C 93.538 166.302,93.791 166.135,93.869 166.038 C 93.946 165.941,94.454 165.634,94.996 165.355 C 96.682 164.489,97.745 163.889,98.571 163.336 C 99.008 163.043,99.878 162.547,100.505 162.233 C 101.131 161.920,102.175 161.283,102.824 160.817 C 104.194 159.836,104.065 160.866,104.069 150.916 C 104.071 143.788,104.180 143.063,105.331 142.489 C 105.661 142.325,106.102 142.050,106.312 141.879 C 106.523 141.707,107.329 141.217,108.104 140.790 C 108.879 140.363,109.591 139.896,109.685 139.753 C 110.012 139.253,112.170 139.147,112.691 139.605 C 112.959 139.840,113.495 140.128,113.883 140.244 C 114.271 140.361,114.651 140.535,114.729 140.630 C 114.955 140.909,115.955 141.510,116.490 141.690 C 116.762 141.781,116.984 141.968,116.984 142.105 C 116.984 142.242,117.154 142.354,117.363 142.354 C 117.990 142.354,118.675 143.330,118.675 144.222 C 118.675 144.683,118.827 145.212,119.013 145.398 C 119.276 145.661,119.276 145.736,119.013 145.736 C 118.827 145.736,118.675 145.965,118.675 146.244 C 118.675 146.523,118.827 146.903,119.013 147.089 C 119.276 147.353,119.276 147.428,119.013 147.428 C 118.827 147.428,118.675 147.745,118.675 148.132 C 118.675 148.520,118.827 148.837,119.013 148.837 C 119.276 148.837,119.276 148.912,119.013 149.175 C 118.586 149.602,118.571 150.529,118.992 150.529 C 119.206 150.529,119.218 150.642,119.028 150.881 C 118.875 151.075,118.749 152.185,118.749 153.347 C 118.749 154.510,118.875 155.620,119.028 155.814 C 119.218 156.053,119.206 156.166,118.992 156.166 C 118.571 156.166,118.586 157.092,119.013 157.519 C 119.276 157.782,119.276 157.858,119.013 157.858 C 118.827 157.858,118.675 158.175,118.675 158.562 C 118.675 158.950,118.802 159.267,118.957 159.267 C 119.112 159.267,119.239 159.434,119.239 159.637 C 119.239 160.181,120.599 161.316,122.128 162.048 C 122.865 162.401,123.467 162.797,123.467 162.929 C 123.467 163.061,123.848 163.252,124.313 163.354 C 124.778 163.457,125.159 163.642,125.159 163.767 C 125.159 163.891,125.381 164.071,125.652 164.167 C 125.923 164.262,126.906 164.782,127.837 165.323 C 128.767 165.863,129.750 166.385,130.021 166.483 C 130.292 166.582,130.514 166.764,130.514 166.889 C 130.514 167.013,130.895 167.199,131.360 167.301 C 131.825 167.403,132.206 167.591,132.206 167.720 C 132.206 167.848,132.522 167.806,132.908 167.627 L 133.611 167.301 133.613 151.206 C 133.616 132.567,134.051 134.803,130.018 132.752 C 129.357 132.415,128.752 132.036,128.673 131.909 C 128.594 131.782,127.867 131.350,127.056 130.950 C 125.575 130.219,124.575 129.649,124.313 129.387 C 124.060 129.134,123.073 128.579,121.564 127.840 C 120.751 127.441,120.085 127.006,120.085 126.872 C 120.085 126.739,119.736 126.542,119.309 126.436 C 118.883 126.329,118.154 125.963,117.689 125.623 C 117.223 125.282,116.367 124.755,115.786 124.453 C 115.204 124.150,114.729 123.819,114.729 123.716 C 114.729 123.613,114.381 123.441,113.956 123.334 C 113.532 123.228,113.109 123.019,113.017 122.871 C 112.628 122.241,110.932 122.331,109.796 123.041 M286.147 123.482 C 285.311 123.915,284.550 124.381,284.456 124.518 C 284.362 124.655,283.714 125.053,283.016 125.403 C 280.741 126.545,278.903 127.575,278.018 128.205 C 277.541 128.545,277.066 128.823,276.964 128.823 C 276.861 128.823,276.373 129.130,275.880 129.506 C 275.386 129.881,274.634 130.276,274.207 130.382 C 273.781 130.489,273.432 130.685,273.432 130.819 C 273.432 130.952,272.766 131.382,271.952 131.774 C 270.347 132.546,269.819 132.855,268.447 133.826 C 267.954 134.175,267.434 134.461,267.293 134.461 C 266.149 134.461,266.103 134.977,266.103 147.764 L 266.103 160.036 266.865 160.798 C 267.284 161.217,268.267 161.874,269.050 162.257 C 270.687 163.061,271.539 163.556,271.743 163.825 C 271.823 163.929,272.235 164.102,272.660 164.208 C 273.084 164.315,273.432 164.486,273.432 164.589 C 273.432 164.692,273.908 165.023,274.489 165.325 C 275.070 165.626,275.863 166.111,276.251 166.401 C 276.638 166.692,277.336 167.112,277.801 167.334 C 278.266 167.557,279.408 168.180,280.338 168.719 C 281.268 169.257,282.252 169.776,282.523 169.871 C 282.794 169.967,283.016 170.143,283.016 170.263 C 283.016 170.383,283.358 170.567,283.775 170.672 C 284.192 170.777,284.738 171.099,284.989 171.388 C 285.240 171.678,285.787 172.000,286.204 172.105 C 286.621 172.209,286.963 172.408,286.963 172.546 C 286.963 173.241,290.519 172.248,291.038 171.408 C 291.229 171.099,294.112 169.697,294.556 169.697 C 294.721 169.697,294.856 169.600,294.856 169.482 C 294.856 169.250,294.966 169.185,297.699 167.785 C 301.503 165.837,301.656 165.718,301.564 164.778 C 301.503 164.151,301.251 163.801,300.634 163.487 C 300.169 163.250,299.431 162.817,298.994 162.526 C 298.166 161.973,297.097 161.370,295.419 160.508 C 294.877 160.229,294.369 159.931,294.292 159.846 C 294.061 159.591,293.116 159.054,291.543 158.284 C 290.729 157.885,290.063 157.446,290.063 157.308 C 290.063 157.170,289.683 156.973,289.218 156.871 C 288.753 156.769,288.372 156.583,288.372 156.459 C 288.372 156.334,288.150 156.152,287.879 156.054 C 287.607 155.955,286.624 155.433,285.694 154.893 C 284.764 154.352,283.781 153.832,283.510 153.737 C 283.238 153.642,283.016 153.462,283.016 153.337 C 283.016 153.212,282.667 153.033,282.241 152.939 C 281.779 152.837,281.324 152.464,281.113 152.015 C 280.680 151.088,280.617 144.045,281.043 144.045 C 281.198 144.045,281.325 143.855,281.325 143.622 C 281.325 143.390,281.515 143.199,281.748 143.199 C 281.980 143.199,282.171 143.087,282.171 142.950 C 282.171 142.813,282.393 142.622,282.664 142.524 C 283.439 142.245,285.901 140.868,286.872 140.169 C 288.133 139.263,288.627 139.345,290.772 140.817 C 291.235 141.135,291.931 141.548,292.319 141.736 C 295.412 143.232,295.527 143.426,295.701 147.428 C 295.836 150.526,295.870 150.673,296.477 150.760 C 297.127 150.852,299.648 149.750,299.648 149.373 C 299.648 149.258,300.028 149.080,300.493 148.978 C 300.958 148.876,301.339 148.679,301.339 148.540 C 301.339 148.401,301.910 148.027,302.607 147.710 C 303.305 147.392,303.876 147.023,303.876 146.890 C 303.876 146.757,304.098 146.573,304.369 146.482 C 304.906 146.302,305.503 145.941,306.887 144.962 C 307.381 144.613,307.910 144.327,308.064 144.327 C 308.217 144.327,308.733 143.999,309.210 143.597 L 310.078 142.867 310.078 139.087 C 310.078 136.755,309.970 135.307,309.796 135.307 C 309.641 135.307,309.514 135.116,309.514 134.884 C 309.514 134.651,309.323 134.461,309.091 134.461 C 308.858 134.461,308.668 134.338,308.668 134.187 C 308.668 134.037,308.002 133.586,307.188 133.185 C 305.061 132.139,302.974 130.991,302.023 130.346 C 301.569 130.038,300.722 129.541,300.141 129.241 C 299.560 128.940,299.084 128.607,299.084 128.500 C 299.084 128.392,298.703 128.221,298.238 128.118 C 297.773 128.016,297.393 127.820,297.393 127.681 C 297.393 127.543,296.727 127.108,295.913 126.714 C 295.099 126.320,293.989 125.728,293.446 125.398 C 292.903 125.068,292.079 124.566,291.614 124.282 C 288.557 122.416,288.282 122.376,286.147 123.482 M229.973 139.900 C 230.140 140.100,230.726 140.441,231.276 140.657 C 231.826 140.873,232.276 141.149,232.276 141.271 C 232.276 141.392,232.982 141.844,233.846 142.275 C 234.709 142.706,235.660 143.184,235.960 143.337 C 237.311 144.027,236.598 153.066,235.192 153.066 C 234.984 153.066,234.813 153.178,234.813 153.315 C 234.813 153.452,234.591 153.643,234.320 153.741 C 233.686 153.969,231.223 155.321,230.279 155.959 C 229.447 156.522,227.996 156.209,227.186 155.292 C 226.944 155.018,226.405 154.709,225.988 154.604 C 225.570 154.500,225.229 154.321,225.229 154.208 C 225.229 154.095,224.531 153.661,223.679 153.244 C 222.537 152.684,222.117 152.320,222.086 151.859 C 222.062 151.515,222.026 149.648,222.006 147.710 L 221.969 144.186 222.804 143.422 C 223.263 143.002,223.996 142.580,224.434 142.484 C 224.871 142.388,225.229 142.221,225.229 142.114 C 225.229 142.006,225.705 141.669,226.286 141.363 C 226.868 141.058,227.421 140.701,227.517 140.569 C 228.094 139.772,229.540 139.378,229.973 139.900 M287.808 142.887 C 287.808 143.025,287.461 143.226,287.036 143.332 C 286.611 143.439,286.199 143.611,286.120 143.715 C 285.901 144.002,284.911 144.605,284.345 144.794 C 283.346 145.128,283.776 149.994,284.848 150.492 C 285.314 150.707,285.987 151.150,286.344 151.475 C 287.230 152.281,288.966 152.272,289.836 151.457 C 290.194 151.122,290.835 150.716,291.261 150.554 C 291.985 150.280,292.037 150.151,292.037 148.619 C 292.037 147.716,292.175 146.839,292.343 146.670 C 292.564 146.450,292.564 146.311,292.343 146.174 C 292.175 146.070,292.037 145.791,292.037 145.554 C 292.037 145.114,290.977 144.072,290.513 144.054 C 290.372 144.049,289.842 143.728,289.334 143.340 C 288.384 142.616,287.808 142.445,287.808 142.887 "
       stroke="none"
       fill="#646c64"
       fill-rule="evenodd" />
    <path
       id="path3"
       d="M195.727 0.547 C 194.333 0.885,192.766 1.595,190.657 2.844 C 186.913 5.061,186.313 5.408,184.355 6.491 C 183.502 6.963,182.336 7.630,181.763 7.973 C 180.246 8.882,177.579 10.435,176.603 10.978 C 175.695 11.483,172.928 13.104,172.234 13.538 C 170.821 14.422,164.884 17.759,164.726 17.759 C 164.621 17.759,164.143 18.049,163.663 18.403 C 163.183 18.757,162.474 19.200,162.086 19.386 C 161.698 19.573,160.557 20.231,159.549 20.849 C 158.541 21.466,157.402 22.109,157.018 22.279 C 156.633 22.448,156.253 22.682,156.172 22.800 C 156.091 22.917,155.264 23.433,154.334 23.945 C 151.205 25.670,150.393 26.133,148.978 27.005 C 148.203 27.483,146.998 28.167,146.300 28.525 C 145.603 28.882,144.968 29.247,144.891 29.336 C 144.766 29.479,143.039 30.462,140.506 31.834 C 140.033 32.090,139.272 32.559,138.815 32.876 C 138.358 33.194,137.774 33.529,137.516 33.622 C 137.258 33.714,136.011 34.433,134.745 35.218 C 133.479 36.003,132.384 36.646,132.312 36.646 C 132.239 36.646,130.913 37.407,129.364 38.337 C 127.815 39.267,126.502 40.028,126.445 40.028 C 126.389 40.028,125.537 40.533,124.553 41.151 C 123.568 41.768,122.192 42.545,121.494 42.878 C 120.796 43.211,120.162 43.576,120.085 43.689 C 120.007 43.803,119.500 44.120,118.957 44.394 C 118.414 44.667,116.888 45.541,115.565 46.336 C 112.717 48.047,111.907 48.507,110.218 49.380 C 109.521 49.740,108.887 50.101,108.809 50.181 C 108.524 50.478,104.022 52.995,103.776 52.995 C 103.636 52.995,103.373 53.174,103.191 53.394 C 103.009 53.613,102.328 54.060,101.677 54.388 C 101.026 54.716,99.922 55.356,99.225 55.811 C 98.527 56.265,97.385 56.912,96.688 57.248 C 95.990 57.584,95.356 57.947,95.278 58.054 C 95.201 58.162,94.440 58.634,93.587 59.103 C 91.257 60.387,87.899 62.321,87.104 62.837 C 86.716 63.089,85.891 63.547,85.271 63.854 C 84.651 64.160,84.080 64.489,84.003 64.584 C 83.925 64.678,83.464 64.960,82.977 65.209 C 80.636 66.408,77.763 70.043,76.691 73.164 L 76.105 74.869 76.178 141.804 C 76.232 191.525,76.334 208.884,76.574 209.302 C 76.752 209.612,77.119 210.403,77.391 211.060 C 78.001 212.540,80.908 215.617,82.549 216.521 C 83.223 216.892,84.443 217.576,85.260 218.041 C 86.078 218.506,87.303 219.186,87.982 219.553 C 89.523 220.384,93.675 222.849,95.012 223.726 C 95.563 224.087,96.114 224.383,96.237 224.383 C 96.359 224.383,96.858 224.669,97.345 225.018 C 97.832 225.366,98.486 225.790,98.798 225.958 C 101.202 227.255,104.846 229.333,105.426 229.738 C 105.814 230.008,106.702 230.517,107.400 230.868 C 108.097 231.219,108.732 231.600,108.809 231.714 C 108.887 231.829,109.521 232.199,110.218 232.538 C 110.916 232.877,112.185 233.586,113.037 234.114 C 113.890 234.643,114.841 235.203,115.152 235.359 C 115.462 235.515,116.667 236.214,117.829 236.911 C 118.992 237.609,120.261 238.339,120.648 238.534 C 121.036 238.728,122.479 239.556,123.856 240.374 C 125.232 241.192,126.403 241.860,126.458 241.860 C 126.542 241.860,129.354 243.502,130.796 244.393 C 132.752 245.601,136.283 247.630,137.984 248.523 C 138.760 248.930,139.457 249.355,139.535 249.466 C 139.612 249.578,139.803 249.720,139.958 249.782 C 140.113 249.844,141.230 250.465,142.442 251.163 C 143.653 251.860,144.985 252.622,145.401 252.854 C 145.818 253.087,147.154 253.848,148.370 254.545 C 149.587 255.243,151.299 256.219,152.176 256.714 C 153.845 257.656,154.729 258.180,157.294 259.752 C 158.147 260.275,159.479 261.037,160.254 261.447 C 161.029 261.857,161.917 262.343,162.227 262.527 C 162.537 262.711,163.552 263.305,164.482 263.848 C 165.412 264.390,166.378 264.961,166.628 265.116 C 166.879 265.271,167.640 265.699,168.320 266.067 C 169.000 266.435,170.634 267.395,171.952 268.201 C 173.270 269.007,174.538 269.758,174.771 269.869 C 175.463 270.200,179.972 272.792,181.222 273.577 C 181.472 273.734,182.755 274.471,184.073 275.214 C 185.391 275.957,187.535 277.192,188.836 277.959 C 190.138 278.725,191.243 279.352,191.290 279.352 C 191.338 279.352,191.835 279.662,192.394 280.041 C 196.275 282.675,206.729 282.048,209.161 279.036 C 209.239 278.940,210.000 278.482,210.853 278.018 C 212.976 276.864,216.424 274.881,217.618 274.128 C 218.161 273.786,219.366 273.079,220.296 272.558 C 221.226 272.036,222.368 271.391,222.833 271.125 C 223.298 270.859,224.213 270.378,224.865 270.055 C 225.517 269.733,226.118 269.361,226.200 269.228 C 226.282 269.096,226.890 268.716,227.551 268.384 C 228.212 268.052,229.818 267.149,231.120 266.378 C 232.422 265.606,233.537 264.975,233.598 264.975 C 233.659 264.975,233.863 264.843,234.050 264.681 C 234.371 264.403,236.786 262.984,240.592 260.837 C 241.522 260.312,242.532 259.728,242.836 259.540 C 243.782 258.953,245.330 258.048,246.653 257.308 C 249.082 255.949,250.005 255.417,251.074 254.762 C 251.665 254.399,252.467 253.950,252.854 253.762 C 253.242 253.575,253.749 253.298,253.982 253.146 C 254.709 252.671,258.048 250.713,258.492 250.501 C 258.724 250.390,259.612 249.867,260.465 249.338 C 261.318 248.809,262.650 248.050,263.425 247.650 C 264.200 247.250,265.405 246.547,266.103 246.088 C 266.801 245.628,267.562 245.163,267.794 245.055 C 268.200 244.865,271.429 242.979,272.304 242.420 C 272.537 242.272,273.171 241.916,273.714 241.630 C 274.681 241.120,277.389 239.570,278.224 239.049 C 278.457 238.904,279.408 238.353,280.338 237.825 C 283.456 236.056,283.996 235.741,285.412 234.863 C 286.187 234.383,287.456 233.666,288.231 233.269 C 289.006 232.872,290.211 232.177,290.909 231.724 C 292.238 230.863,292.310 230.820,295.701 228.920 C 296.864 228.268,298.323 227.424,298.943 227.043 C 299.563 226.663,300.768 225.967,301.621 225.497 C 302.474 225.027,304.313 223.957,305.708 223.119 C 308.528 221.425,311.041 219.998,312.582 219.215 C 317.335 216.801,321.292 213.228,322.636 210.138 C 322.904 209.523,323.264 208.716,323.436 208.344 C 323.663 207.853,323.749 189.335,323.749 141.113 L 323.749 74.560 323.099 72.805 C 321.841 69.408,320.085 67.110,317.689 65.721 C 317.146 65.406,315.751 64.606,314.588 63.942 C 313.425 63.278,312.269 62.605,312.019 62.446 C 311.770 62.287,310.882 61.790,310.046 61.343 C 309.211 60.895,307.869 60.109,307.064 59.595 C 306.260 59.082,305.055 58.385,304.386 58.046 C 303.718 57.707,303.108 57.351,303.030 57.256 C 302.953 57.160,302.319 56.789,301.621 56.431 C 300.923 56.073,299.782 55.409,299.084 54.956 C 298.386 54.502,297.498 53.974,297.111 53.782 C 296.432 53.446,293.190 51.575,292.319 51.017 C 292.086 50.868,291.388 50.474,290.768 50.141 C 290.148 49.809,289.577 49.458,289.500 49.363 C 289.422 49.267,288.788 48.899,288.090 48.544 C 287.393 48.190,286.631 47.783,286.399 47.639 C 286.166 47.496,284.961 46.796,283.721 46.084 C 282.481 45.372,281.276 44.671,281.043 44.526 C 280.339 44.087,278.737 43.158,277.037 42.202 C 276.151 41.704,274.312 40.653,272.949 39.865 C 271.587 39.078,270.282 38.347,270.049 38.240 C 269.817 38.133,269.056 37.670,268.358 37.210 C 267.660 36.750,266.519 36.086,265.821 35.735 C 265.123 35.383,264.510 34.999,264.458 34.881 C 264.405 34.763,263.708 34.346,262.907 33.954 C 261.433 33.232,259.437 32.089,258.907 31.663 C 258.748 31.535,257.987 31.087,257.216 30.668 C 254.042 28.940,252.655 28.157,251.586 27.488 C 250.965 27.101,250.268 26.695,250.035 26.588 C 249.538 26.359,245.576 24.084,244.961 23.675 C 244.729 23.520,243.999 23.116,243.340 22.775 C 242.681 22.435,242.142 22.055,242.142 21.931 C 242.142 21.807,242.019 21.705,241.869 21.705 C 241.719 21.705,240.444 21.039,239.037 20.226 C 237.630 19.412,235.945 18.441,235.294 18.069 C 234.642 17.697,234.045 17.317,233.968 17.224 C 233.890 17.131,233.192 16.711,232.417 16.291 C 230.108 15.041,227.995 13.859,226.498 12.981 C 225.722 12.526,224.581 11.876,223.961 11.536 C 223.340 11.196,222.770 10.840,222.692 10.744 C 222.615 10.649,221.980 10.274,221.283 9.913 C 220.585 9.551,219.190 8.775,218.182 8.189 C 217.174 7.602,215.335 6.540,214.094 5.829 C 212.854 5.118,211.712 4.435,211.557 4.312 C 211.402 4.188,210.768 3.835,210.148 3.526 C 209.528 3.217,208.830 2.817,208.598 2.636 C 205.639 0.332,200.234 -0.545,195.727 0.547 M238.648 94.337 C 239.437 94.854,240.041 95.189,243.054 96.782 C 244.178 97.376,245.162 97.947,245.241 98.050 C 245.395 98.252,247.396 99.360,249.504 100.409 C 251.655 101.480,251.519 99.379,251.521 131.589 L 251.523 160.508 250.568 161.308 C 250.042 161.748,248.978 162.432,248.203 162.828 C 246.153 163.874,245.209 164.410,244.257 165.067 C 243.791 165.388,242.967 165.876,242.424 166.152 C 240.818 166.968,239.695 167.599,238.850 168.163 C 237.849 168.831,236.763 169.443,234.889 170.394 C 234.078 170.805,233.337 171.268,233.242 171.422 C 232.318 172.917,228.517 173.376,226.870 172.192 C 225.865 171.470,223.409 170.092,222.622 169.809 C 222.350 169.711,222.128 169.529,222.128 169.405 C 222.128 169.280,221.748 169.094,221.283 168.992 C 220.817 168.890,220.437 168.693,220.437 168.554 C 220.437 168.415,219.866 168.042,219.168 167.724 C 218.471 167.406,217.900 167.036,217.900 166.902 C 217.900 166.767,217.559 166.572,217.142 166.467 C 216.725 166.362,215.999 166.000,215.528 165.661 C 214.579 164.979,212.112 163.601,211.346 163.325 C 211.075 163.228,210.853 163.049,210.853 162.929 C 210.853 162.809,210.530 162.630,210.135 162.531 C 209.739 162.431,208.978 161.899,208.443 161.348 L 207.470 160.346 207.470 148.151 C 207.470 136.932,207.510 135.913,207.963 135.413 C 208.556 134.760,209.746 133.959,211.276 133.186 C 211.896 132.872,212.761 132.376,213.198 132.083 C 214.161 131.439,215.425 130.732,216.843 130.047 C 217.424 129.766,217.900 129.443,217.900 129.329 C 217.900 129.215,218.566 128.801,219.380 128.409 C 220.939 127.659,221.893 127.106,222.128 126.817 C 222.206 126.722,222.586 126.545,222.974 126.424 C 223.362 126.304,224.071 125.906,224.551 125.541 C 225.031 125.176,225.515 124.877,225.627 124.877 C 225.739 124.877,226.261 124.548,226.788 124.147 C 228.437 122.888,232.289 123.300,233.238 124.836 C 233.688 125.564,235.892 126.321,236.484 125.952 C 237.073 125.584,237.270 124.753,236.833 124.482 C 236.564 124.316,236.606 123.567,236.926 122.814 C 237.051 122.519,237.011 122.169,236.831 121.989 C 236.603 121.762,236.603 121.575,236.828 121.303 C 237.056 121.028,237.046 120.930,236.786 120.930 C 236.507 120.930,236.507 120.845,236.786 120.507 C 237.066 120.170,237.066 120.085,236.786 120.085 C 236.507 120.085,236.507 119.999,236.786 119.662 C 237.032 119.366,237.041 119.239,236.819 119.239 C 236.593 119.239,236.602 119.075,236.852 118.675 C 237.133 118.224,237.133 117.998,236.852 117.548 C 236.602 117.148,236.593 116.984,236.819 116.984 C 237.041 116.984,237.032 116.857,236.786 116.561 C 236.507 116.224,236.507 116.138,236.786 116.138 C 237.066 116.138,237.066 116.053,236.786 115.715 C 236.505 115.376,236.509 115.292,236.808 115.292 C 237.094 115.292,237.104 115.215,236.850 114.961 C 236.609 114.721,236.602 114.528,236.825 114.260 C 236.995 114.054,237.036 113.669,236.917 113.393 C 236.608 112.679,236.591 111.264,236.885 110.853 C 237.051 110.621,237.009 110.500,236.765 110.500 C 236.475 110.500,236.467 110.425,236.730 110.162 C 237.157 109.735,237.172 108.809,236.752 108.809 C 236.524 108.809,236.527 108.699,236.764 108.414 C 237.016 108.110,237.007 107.979,236.728 107.850 C 236.430 107.712,236.430 107.651,236.728 107.513 C 237.007 107.384,237.016 107.253,236.764 106.949 C 236.512 106.646,236.517 106.554,236.786 106.554 C 237.066 106.554,237.066 106.468,236.786 106.131 C 236.544 105.839,236.533 105.708,236.752 105.708 C 237.104 105.708,237.190 104.689,236.855 104.482 C 236.590 104.318,236.606 101.567,236.873 101.299 C 237.188 100.985,237.097 100.070,236.752 100.070 C 236.533 100.070,236.544 99.940,236.786 99.648 C 237.066 99.310,237.066 99.225,236.786 99.225 C 236.507 99.225,236.507 99.139,236.786 98.802 C 237.068 98.462,237.064 98.379,236.765 98.379 C 236.479 98.379,236.469 98.302,236.723 98.048 C 236.966 97.805,236.971 97.615,236.745 97.343 C 236.520 97.071,236.521 96.970,236.752 96.970 C 237.172 96.970,237.157 96.044,236.730 95.617 C 236.467 95.354,236.467 95.278,236.730 95.278 C 236.916 95.278,237.068 95.113,237.068 94.912 C 237.068 93.981,237.735 93.739,238.648 94.337 M113.017 122.871 C 113.109 123.019,113.532 123.228,113.956 123.334 C 114.381 123.441,114.729 123.613,114.729 123.716 C 114.729 123.819,115.204 124.150,115.786 124.453 C 116.367 124.755,117.223 125.282,117.689 125.623 C 118.154 125.963,118.883 126.329,119.309 126.436 C 119.736 126.542,120.085 126.739,120.085 126.872 C 120.085 127.006,120.751 127.441,121.564 127.840 C 123.073 128.579,124.060 129.134,124.313 129.387 C 124.575 129.649,125.575 130.219,127.056 130.950 C 127.867 131.350,128.594 131.782,128.673 131.909 C 128.752 132.036,129.357 132.415,130.018 132.752 C 134.051 134.803,133.616 132.567,133.613 151.206 L 133.611 167.301 132.908 167.627 C 132.522 167.806,132.206 167.848,132.206 167.720 C 132.206 167.591,131.825 167.403,131.360 167.301 C 130.895 167.199,130.514 167.013,130.514 166.889 C 130.514 166.764,130.292 166.582,130.021 166.483 C 129.750 166.385,128.767 165.863,127.837 165.323 C 126.906 164.782,125.923 164.262,125.652 164.167 C 125.381 164.071,125.159 163.891,125.159 163.767 C 125.159 163.642,124.778 163.457,124.313 163.354 C 123.848 163.252,123.467 163.061,123.467 162.929 C 123.467 162.797,122.865 162.401,122.128 162.048 C 120.599 161.316,119.239 160.181,119.239 159.637 C 119.239 159.434,119.112 159.267,118.957 159.267 C 118.802 159.267,118.675 158.950,118.675 158.562 C 118.675 158.175,118.827 157.858,119.013 157.858 C 119.276 157.858,119.276 157.782,119.013 157.519 C 118.586 157.092,118.571 156.166,118.992 156.166 C 119.206 156.166,119.218 156.053,119.028 155.814 C 118.875 155.620,118.749 154.510,118.749 153.347 C 118.749 152.185,118.875 151.075,119.028 150.881 C 119.218 150.642,119.206 150.529,118.992 150.529 C 118.571 150.529,118.586 149.602,119.013 149.175 C 119.276 148.912,119.276 148.837,119.013 148.837 C 118.827 148.837,118.675 148.520,118.675 148.132 C 118.675 147.745,118.827 147.428,119.013 147.428 C 119.276 147.428,119.276 147.353,119.013 147.089 C 118.827 146.903,118.675 146.523,118.675 146.244 C 118.675 145.965,118.827 145.736,119.013 145.736 C 119.276 145.736,119.276 145.661,119.013 145.398 C 118.827 145.212,118.675 144.683,118.675 144.222 C 118.675 143.330,117.990 142.354,117.363 142.354 C 117.154 142.354,116.984 142.242,116.984 142.105 C 116.984 141.968,116.762 141.781,116.490 141.690 C 115.955 141.510,114.955 140.909,114.729 140.630 C 114.651 140.535,114.271 140.361,113.883 140.244 C 113.495 140.128,112.959 139.840,112.691 139.605 C 112.170 139.147,110.012 139.253,109.685 139.753 C 109.591 139.896,108.879 140.363,108.104 140.790 C 107.329 141.217,106.523 141.707,106.312 141.879 C 106.102 142.050,105.661 142.325,105.331 142.489 C 104.180 143.063,104.071 143.788,104.069 150.916 C 104.065 160.866,104.194 159.836,102.824 160.817 C 102.175 161.283,101.131 161.920,100.505 162.233 C 99.878 162.547,99.008 163.043,98.571 163.336 C 97.745 163.889,96.682 164.489,94.996 165.355 C 94.454 165.634,93.946 165.941,93.869 166.038 C 93.791 166.135,93.538 166.302,93.305 166.409 C 93.073 166.516,92.343 166.908,91.684 167.281 C 91.025 167.654,90.486 167.842,90.486 167.700 C 90.486 167.558,90.312 167.442,90.098 167.442 C 89.884 167.442,89.552 167.252,89.359 167.019 C 89.116 166.727,89.106 166.596,89.324 166.596 C 89.744 166.596,89.729 165.670,89.302 165.243 C 89.039 164.980,89.039 164.905,89.302 164.905 C 89.724 164.905,89.750 163.878,89.334 163.621 C 89.113 163.485,89.113 163.346,89.334 163.125 C 89.736 162.724,89.729 161.804,89.324 161.804 C 89.106 161.804,89.116 161.673,89.359 161.381 C 89.641 161.042,89.636 160.958,89.337 160.958 C 89.047 160.958,89.039 160.883,89.302 160.620 C 89.713 160.209,89.751 159.267,89.356 159.267 C 89.188 159.267,89.215 159.037,89.424 158.703 C 89.706 158.253,89.706 158.027,89.424 157.576 C 89.215 157.242,89.188 157.012,89.356 157.012 C 89.751 157.012,89.713 156.070,89.302 155.659 C 89.039 155.396,89.047 155.321,89.337 155.321 C 89.636 155.321,89.641 155.237,89.359 154.898 C 89.116 154.606,89.106 154.475,89.324 154.475 C 89.730 154.475,89.738 153.441,89.334 153.191 C 89.113 153.055,89.113 152.916,89.334 152.695 C 89.746 152.283,89.724 151.374,89.302 151.374 C 89.039 151.374,89.039 151.299,89.302 151.036 C 89.720 150.618,89.748 149.683,89.342 149.683 C 89.178 149.683,89.138 149.530,89.253 149.343 C 89.616 148.757,89.658 147.366,89.326 146.966 C 89.092 146.683,89.091 146.582,89.324 146.582 C 89.744 146.582,89.729 145.656,89.302 145.229 C 89.039 144.966,89.039 144.891,89.302 144.891 C 89.664 144.891,89.770 143.987,89.447 143.664 C 89.161 143.378,89.132 142.353,89.405 142.184 C 89.768 141.960,89.684 140.944,89.302 140.944 C 89.039 140.944,89.039 140.869,89.302 140.606 C 89.720 140.188,89.748 139.253,89.342 139.253 C 89.178 139.253,89.138 139.100,89.253 138.913 C 89.616 138.327,89.658 136.936,89.326 136.536 C 89.092 136.253,89.091 136.152,89.324 136.152 C 89.498 136.152,89.643 135.867,89.645 135.518 C 89.651 134.742,90.499 133.929,92.178 133.088 C 94.267 132.041,96.256 130.940,97.132 130.346 C 97.585 130.038,98.432 129.541,99.013 129.241 C 99.595 128.940,100.070 128.607,100.070 128.500 C 100.070 128.392,100.451 128.221,100.916 128.118 C 101.381 128.016,101.762 127.831,101.762 127.706 C 101.762 127.581,101.984 127.400,102.255 127.302 C 102.959 127.049,105.432 125.684,106.420 125.004 C 106.881 124.686,107.576 124.273,107.963 124.086 C 108.351 123.899,109.175 123.428,109.796 123.041 C 110.932 122.331,112.628 122.241,113.017 122.871 M172.462 123.256 C 173.046 123.605,173.773 124.044,174.077 124.232 C 174.381 124.420,175.201 124.861,175.899 125.213 C 176.596 125.565,177.548 126.121,178.013 126.450 C 178.478 126.779,179.049 127.136,179.281 127.242 C 179.514 127.349,179.958 127.589,180.270 127.777 C 180.581 127.965,181.722 128.624,182.807 129.242 C 183.891 129.860,184.989 130.495,185.246 130.652 C 185.861 131.027,189.369 133.006,190.304 133.506 C 190.708 133.721,191.374 134.209,191.784 134.589 L 192.530 135.280 192.530 147.287 C 192.530 161.950,193.128 160.168,187.095 163.487 C 186.151 164.006,180.385 167.394,178.999 168.244 C 178.457 168.577,177.378 169.168,176.603 169.559 C 175.828 169.949,174.263 170.837,173.126 171.533 C 170.497 173.141,168.950 172.874,165.501 170.215 C 165.131 169.930,164.721 169.697,164.590 169.697 C 164.459 169.697,163.522 169.190,162.509 168.569 C 161.496 167.949,160.584 167.442,160.482 167.442 C 160.381 167.442,160.098 167.269,159.853 167.059 C 159.608 166.848,158.710 166.295,157.858 165.831 C 157.005 165.367,155.863 164.721,155.321 164.396 C 154.778 164.071,153.333 163.260,152.109 162.593 C 150.885 161.927,149.521 161.045,149.078 160.634 L 148.273 159.887 148.273 147.776 C 148.273 133.707,147.951 135.101,151.706 132.923 C 152.996 132.175,154.369 131.361,154.757 131.115 C 155.144 130.869,156.032 130.376,156.730 130.021 C 158.133 129.305,158.718 128.960,159.972 128.110 C 160.437 127.794,161.135 127.381,161.522 127.192 C 161.910 127.003,163.178 126.288,164.341 125.603 C 165.504 124.918,167.026 124.062,167.724 123.701 C 168.421 123.340,169.035 122.949,169.086 122.833 C 169.289 122.376,171.439 122.645,172.462 123.256 M289.658 123.194 C 290.269 123.508,291.149 123.998,291.614 124.282 C 292.079 124.566,292.903 125.068,293.446 125.398 C 293.989 125.728,295.099 126.320,295.913 126.714 C 296.727 127.108,297.393 127.543,297.393 127.681 C 297.393 127.820,297.773 128.016,298.238 128.118 C 298.703 128.221,299.084 128.392,299.084 128.500 C 299.084 128.607,299.560 128.940,300.141 129.241 C 300.722 129.541,301.569 130.038,302.023 130.346 C 302.974 130.991,305.061 132.139,307.188 133.185 C 308.002 133.586,308.668 134.037,308.668 134.187 C 308.668 134.338,308.858 134.461,309.091 134.461 C 309.323 134.461,309.514 134.651,309.514 134.884 C 309.514 135.116,309.641 135.307,309.796 135.307 C 309.970 135.307,310.078 136.755,310.078 139.087 L 310.078 142.867 309.210 143.597 C 308.733 143.999,308.217 144.327,308.064 144.327 C 307.910 144.327,307.381 144.613,306.887 144.962 C 305.503 145.941,304.906 146.302,304.369 146.482 C 304.098 146.573,303.876 146.757,303.876 146.890 C 303.876 147.023,303.305 147.392,302.607 147.710 C 301.910 148.027,301.339 148.401,301.339 148.540 C 301.339 148.679,300.958 148.876,300.493 148.978 C 300.028 149.080,299.648 149.258,299.648 149.373 C 299.648 149.750,297.127 150.852,296.477 150.760 C 295.870 150.673,295.836 150.526,295.701 147.428 C 295.527 143.426,295.412 143.232,292.319 141.736 C 291.931 141.548,291.235 141.135,290.772 140.817 C 288.627 139.345,288.133 139.263,286.872 140.169 C 285.901 140.868,283.439 142.245,282.664 142.524 C 282.393 142.622,282.171 142.813,282.171 142.950 C 282.171 143.087,281.980 143.199,281.748 143.199 C 281.515 143.199,281.325 143.390,281.325 143.622 C 281.325 143.855,281.198 144.045,281.043 144.045 C 280.617 144.045,280.680 151.088,281.113 152.015 C 281.324 152.464,281.779 152.837,282.241 152.939 C 282.667 153.033,283.016 153.212,283.016 153.337 C 283.016 153.462,283.238 153.642,283.510 153.737 C 283.781 153.832,284.764 154.352,285.694 154.893 C 286.624 155.433,287.607 155.955,287.879 156.054 C 288.150 156.152,288.372 156.334,288.372 156.459 C 288.372 156.583,288.753 156.769,289.218 156.871 C 289.683 156.973,290.063 157.170,290.063 157.308 C 290.063 157.446,290.729 157.885,291.543 158.284 C 293.116 159.054,294.061 159.591,294.292 159.846 C 294.369 159.931,294.877 160.229,295.419 160.508 C 297.097 161.370,298.166 161.973,298.994 162.526 C 299.431 162.817,300.169 163.250,300.634 163.487 C 301.251 163.801,301.503 164.151,301.564 164.778 C 301.656 165.718,301.503 165.837,297.699 167.785 C 294.966 169.185,294.856 169.250,294.856 169.482 C 294.856 169.600,294.721 169.697,294.556 169.697 C 294.112 169.697,291.229 171.099,291.038 171.408 C 290.519 172.248,286.963 173.241,286.963 172.546 C 286.963 172.408,286.621 172.209,286.204 172.105 C 285.787 172.000,285.240 171.678,284.989 171.388 C 284.738 171.099,284.192 170.777,283.775 170.672 C 283.358 170.567,283.016 170.383,283.016 170.263 C 283.016 170.143,282.794 169.967,282.523 169.871 C 282.252 169.776,281.268 169.257,280.338 168.719 C 279.408 168.180,278.266 167.557,277.801 167.334 C 277.336 167.112,276.638 166.692,276.251 166.401 C 275.863 166.111,275.070 165.626,274.489 165.325 C 273.908 165.023,273.432 164.692,273.432 164.589 C 273.432 164.486,273.084 164.315,272.660 164.208 C 272.235 164.102,271.823 163.929,271.743 163.825 C 271.539 163.556,270.687 163.061,269.050 162.257 C 268.267 161.874,267.284 161.217,266.865 160.798 L 266.103 160.036 266.103 147.764 C 266.103 134.977,266.149 134.461,267.293 134.461 C 267.434 134.461,267.954 134.175,268.447 133.826 C 269.819 132.855,270.347 132.546,271.952 131.774 C 272.766 131.382,273.432 130.952,273.432 130.819 C 273.432 130.685,273.781 130.489,274.207 130.382 C 274.634 130.276,275.386 129.881,275.880 129.506 C 276.373 129.130,276.861 128.823,276.964 128.823 C 277.066 128.823,277.541 128.545,278.018 128.205 C 278.903 127.575,280.741 126.545,283.016 125.403 C 283.714 125.053,284.362 124.655,284.456 124.518 C 285.348 123.220,288.268 122.477,289.658 123.194 M169.290 140.247 C 168.725 140.631,168.207 140.944,168.139 140.944 C 168.071 140.944,167.187 141.452,166.173 142.072 C 165.160 142.692,164.214 143.199,164.070 143.199 C 162.874 143.199,162.297 151.306,163.425 152.274 C 164.574 153.261,169.831 156.166,170.468 156.166 C 170.850 156.166,172.263 155.500,173.610 154.686 C 174.956 153.872,176.434 153.012,176.894 152.773 L 177.731 152.340 177.809 148.301 C 177.895 143.884,177.874 143.812,176.199 142.881 C 175.646 142.573,174.484 141.916,173.617 141.421 C 169.950 139.329,170.445 139.463,169.290 140.247 M228.362 139.960 C 227.992 140.163,227.612 140.437,227.517 140.569 C 227.421 140.701,226.868 141.058,226.286 141.363 C 225.705 141.669,225.229 142.006,225.229 142.114 C 225.229 142.221,224.871 142.388,224.434 142.484 C 223.996 142.580,223.263 143.002,222.804 143.422 L 221.969 144.186 222.006 147.710 C 222.026 149.648,222.062 151.515,222.086 151.859 C 222.117 152.320,222.537 152.684,223.679 153.244 C 224.531 153.661,225.229 154.095,225.229 154.208 C 225.229 154.321,225.570 154.500,225.988 154.604 C 226.405 154.709,226.944 155.018,227.186 155.292 C 227.996 156.209,229.447 156.522,230.279 155.959 C 231.223 155.321,233.686 153.969,234.320 153.741 C 234.591 153.643,234.813 153.452,234.813 153.315 C 234.813 153.178,234.984 153.066,235.192 153.066 C 236.598 153.066,237.311 144.027,235.960 143.337 C 235.660 143.184,234.709 142.706,233.846 142.275 C 232.982 141.844,232.276 141.392,232.276 141.271 C 232.276 141.149,231.826 140.873,231.276 140.657 C 230.726 140.441,230.140 140.100,229.973 139.900 C 229.607 139.459,229.249 139.472,228.362 139.960 M289.334 143.340 C 289.842 143.728,290.372 144.049,290.513 144.054 C 290.977 144.072,292.037 145.114,292.037 145.554 C 292.037 145.791,292.175 146.070,292.343 146.174 C 292.564 146.311,292.564 146.450,292.343 146.670 C 292.175 146.839,292.037 147.716,292.037 148.619 C 292.037 150.151,291.985 150.280,291.261 150.554 C 290.835 150.716,290.194 151.122,289.836 151.457 C 288.966 152.272,287.230 152.281,286.344 151.475 C 285.987 151.150,285.314 150.707,284.848 150.492 C 283.776 149.994,283.346 145.128,284.345 144.794 C 284.911 144.605,285.901 144.002,286.120 143.715 C 286.199 143.611,286.611 143.439,287.036 143.332 C 287.461 143.226,287.808 143.025,287.808 142.887 C 287.808 142.445,288.384 142.616,289.334 143.340 "
       stroke="none"
       fill="#8cc404"
       fill-rule="evenodd"
       style="fill:#4bac4f;fill-opacity:1" />
  </g>
</svg>
