<?xml version="1.0" encoding="UTF-8" standalone="no"?>
<svg
   xmlns:dc="http://purl.org/dc/elements/1.1/"
   xmlns:cc="http://creativecommons.org/ns#"
   xmlns:rdf="http://www.w3.org/1999/02/22-rdf-syntax-ns#"
   xmlns:svg="http://www.w3.org/2000/svg"
   xmlns="http://www.w3.org/2000/svg"
   xmlns:sodipodi="http://sodipodi.sourceforge.net/DTD/sodipodi-0.dtd"
   xmlns:inkscape="http://www.inkscape.org/namespaces/inkscape"
   id="svg"
   version="1.1"
   width="400"
   height="468.76513317191285"
   viewBox="0, 0, 400,468.76513317191285"
   sodipodi:docname="mongo.svg"
   inkscape:version="1.0.1 (3bc2e813f5, 2020-09-07)">
  <metadata
     id="metadata13">
    <rdf:RDF>
      <cc:Work
         rdf:about="">
        <dc:format>image/svg+xml</dc:format>
        <dc:type
           rdf:resource="http://purl.org/dc/dcmitype/StillImage" />
      </cc:Work>
    </rdf:RDF>
  </metadata>
  <defs
     id="defs11" />
  <sodipodi:namedview
     pagecolor="#ffffff"
     bordercolor="#666666"
     borderopacity="1"
     objecttolerance="10"
     gridtolerance="10"
     guidetolerance="10"
     inkscape:pageopacity="0"
     inkscape:pageshadow="2"
     inkscape:window-width="1521"
     inkscape:window-height="859"
     id="namedview9"
     showgrid="false"
     inkscape:zoom="1.838874"
     inkscape:cx="197.31627"
     inkscape:cy="188.72492"
     inkscape:window-x="0"
     inkscape:window-y="27"
     inkscape:window-maximized="0"
     inkscape:current-layer="svg" />
  <path
     style="fill:#442d24;fill-opacity:1;stroke:#000000;stroke-width:1px;stroke-linecap:butt;stroke-linejoin:miter;stroke-opacity:1"
     d="M 97.95956,96.546005 C 72.28358,166.12906 100.18719,265.5034 199.28029,314.55755 286.5795,283.92699 343.28556,138.7336 297.25383,91.942571 262.39112,61.38473 110.5012,66.32758 97.95956,96.546005 Z"
     id="path857"
     sodipodi:nodetypes="cccc" />
  <g
     id="svgg">
    <path
       id="path0"
       style="fill:#73b65b;fill-opacity:1"
       d="M 180.4,51.903 C 148.62514,53.981677 115.38918,58.778643 88.358436,76.871213 76.533225,86.911177 75.244966,103.95933 72.651893,118.35689 68.127822,161.11754 73.536612,206.41926 95.344989,244.04514 119.14556,282.73864 154.83048,314.3972 196.6,332.4 c 11.62898,1.10436 20.86969,-8.14334 30.76715,-12.78291 C 266.08495,295.98639 299.35153,261.11135 315.8,218.4 329.0006,179.75183 332.15446,136.97275 322.11273,97.230757 319.89318,85.636591 312.57168,75.80643 301.63581,71.181931 264.39248,52.306705 221.26472,51.053066 180.4,51.903 Z m 36.8,20.896 c 27.17764,2.009816 55.64473,5.081847 79.22183,19.948375 10.31777,12.721045 8.61399,30.318065 10.49331,45.649355 1.73132,41.28436 -9.14345,84.19435 -36.19755,116.17319 -18.56294,22.55441 -56.90833,52.49034 -69.33643,54.51893 -5.618,0.065 -19.21394,-7.68889 -38.26351,-20.75301 C 127.22523,261.06181 99.032314,220.99878 94.266785,175.30666 90.78585,149.55291 90.792157,122.61772 98.723699,97.685186 107.75499,84.851748 125.40193,82.976364 139.33624,78.423595 164.82151,72.566206 191.16879,71.854343 217.2,72.799 Z m -18.39,16.69 c -6.46522,13.4284 -19.21631,20.55741 -27.17896,34.44011 -21.30325,34.61669 -25.09979,82.31448 -0.74317,116.47743 6.608,8.60006 19.12426,26.42055 27.10248,25.24469 0.22338,-5.34697 2.72266,-15.64765 3.92468,-4.51438 0.9298,15.36692 18.5578,-7.69498 26.03612,-17.69145 26.05825,-34.83273 20.9449,-85.46544 -3.60916,-120.01468 C 216.72995,111.4253 204.4151,102.83236 198.81,89.489 Z"
       sodipodi:nodetypes="cccccccccccccccccccccccccscc" />
    <path
       id="path1"
       d="m 259.68,347.28 c -0.264,0.264 -0.48,1.344 -0.48,2.4 v 1.92 h 2.151 c 1.424,0 2.319,0.203 2.649,0.6 0.274,0.33 0.836,0.6 1.249,0.6 0.724,0 0.751,0.667 0.751,18.4 0,17.947 -0.019,18.4 -0.776,18.4 -0.427,0 -0.888,0.18 -1.024,0.4 -0.136,0.22 -0.726,0.4 -1.311,0.4 -1.44,0 -2.889,1.736 -2.889,3.462 0,1.424 0.231,1.529 2.954,1.345 0.635,-0.043 1.274,0.115 1.42,0.351 0.41,0.663 19.704,0.8 19.925,0.142 0.112,-0.335 1.072,-0.5 2.911,-0.5 1.508,0 2.854,-0.18 2.99,-0.4 0.136,-0.22 0.764,-0.4 1.395,-0.4 0.631,0 1.418,-0.27 1.748,-0.6 0.33,-0.33 0.973,-0.6 1.428,-0.6 0.456,0 0.829,-0.18 0.829,-0.4 0,-0.22 0.334,-0.4 0.742,-0.4 0.407,0 1.227,-0.45 1.82,-1 0.594,-0.55 1.261,-1 1.483,-1 0.623,0 5.955,-5.575 5.955,-6.225 0,-0.316 0.18,-0.575 0.4,-0.575 0.22,0 0.4,-0.431 0.4,-0.957 0,-0.527 0.27,-1.061 0.6,-1.188 0.33,-0.126 0.6,-0.675 0.6,-1.219 0,-0.544 0.18,-1.1 0.4,-1.236 0.22,-0.136 0.4,-0.873 0.4,-1.638 0,-0.764 0.251,-1.789 0.558,-2.276 0.711,-1.129 0.646,-9.242 -0.08,-9.968 -0.263,-0.263 -0.478,-1.162 -0.478,-1.998 0,-0.836 -0.18,-1.52 -0.4,-1.52 -0.22,0 -0.4,-0.361 -0.4,-0.803 0,-2.403 -6.866,-10.797 -8.832,-10.797 -0.234,0 -0.695,-0.27 -1.025,-0.6 -0.33,-0.33 -0.947,-0.6 -1.372,-0.6 -0.424,0 -0.771,-0.18 -0.771,-0.4 0,-0.22 -0.63,-0.4 -1.4,-0.4 -0.978,0 -1.4,-0.181 -1.4,-0.6 0,-0.801 -32.322,-0.918 -33.12,-0.12 m 53.218,0.02 c -1.796,2.244 -0.961,4.3 1.745,4.3 1.595,0 2.357,0.2 2.927,0.77 1.387,1.387 2.245,3.647 1.13,2.977 -0.394,-0.237 -0.398,-0.174 -0.018,0.295 0.371,0.46 0.396,4.027 0.11,15.577 -0.488,19.691 -0.399,19.181 -3.379,19.181 -2.147,0 -3.441,1.514 -3.591,4.2 -0.012,0.22 1.508,0.526 3.378,0.68 1.87,0.154 5.11,0.457 7.2,0.672 5.169,0.533 12.618,0.392 13.261,-0.252 0.284,-0.285 1.496,-0.5 2.819,-0.5 1.28,0 2.32,-0.179 2.32,-0.4 0,-0.22 0.54,-0.4 1.2,-0.4 0.8,0 1.2,-0.2 1.2,-0.6 0,-0.373 0.378,-0.6 1,-0.6 0.55,0 1,-0.18 1,-0.4 0,-0.22 0.373,-0.4 0.829,-0.4 0.885,0 1.971,-0.866 1.971,-1.571 0,-0.236 0.241,-0.429 0.536,-0.429 0.586,0 3.464,-2.938 3.464,-3.537 0,-0.204 0.273,-0.887 0.607,-1.517 0.66,-1.247 0.818,-10.946 0.177,-10.946 -0.181,0 -0.456,-0.398 -0.611,-0.885 -0.323,-1.018 -2.304,-3.115 -2.942,-3.115 -0.237,0 -0.431,-0.167 -0.431,-0.371 0,-0.476 -2.3,-1.629 -3.249,-1.629 -0.481,0 -0.648,-0.202 -0.496,-0.6 0.127,-0.33 0.404,-0.6 0.616,-0.6 0.474,0 1.529,-1.019 1.529,-1.476 0,-0.184 0.45,-0.672 1,-1.085 0.55,-0.413 1,-1.075 1,-1.471 0,-0.397 0.18,-0.832 0.4,-0.968 0.223,-0.138 0.4,-2.004 0.4,-4.224 0,-2.384 -0.16,-3.976 -0.4,-3.976 -0.22,0 -0.4,-0.366 -0.4,-0.813 0,-0.446 -0.27,-0.916 -0.6,-1.042 -0.33,-0.127 -0.6,-0.404 -0.6,-0.616 0,-0.519 -1.038,-1.529 -1.571,-1.529 -0.236,0 -0.429,-0.167 -0.429,-0.371 0,-0.43 -2.262,-1.629 -3.074,-1.629 -0.303,0 -0.655,-0.27 -0.781,-0.6 -0.314,-0.817 -28.596,-0.913 -29.247,-0.1 m -29.041,4.9 c 0.33,0.33 1.297,0.6 2.148,0.6 0.851,0 1.659,0.18 1.795,0.4 0.136,0.22 0.667,0.4 1.181,0.4 0.513,0 1.026,0.242 1.139,0.537 0.114,0.295 0.853,0.844 1.643,1.219 0.79,0.375 1.437,0.864 1.437,1.086 0,0.223 0.18,0.294 0.4,0.158 0.22,-0.136 0.4,0.003 0.4,0.309 0,0.306 0.45,0.797 1,1.091 0.55,0.294 1,0.747 1,1.006 0,0.635 1.158,2.921 1.625,3.21 0.206,0.127 0.375,0.771 0.375,1.431 0,0.66 0.15,1.108 0.333,0.994 0.447,-0.276 0.474,0.145 0.491,7.553 0.009,4.116 -0.135,6.443 -0.405,6.533 -0.23,0.077 -0.419,0.665 -0.419,1.306 0,0.771 -0.204,1.167 -0.6,1.167 -0.33,0 -0.557,0.135 -0.505,0.3 0.43,1.356 -4.205,6.9 -5.768,6.9 -0.255,0 -0.754,0.263 -1.109,0.584 -0.355,0.321 -1.387,0.636 -2.293,0.7 -0.906,0.064 -1.564,0.251 -1.463,0.416 0.102,0.165 -0.985,0.3 -2.415,0.3 -1.43,0 -2.711,-0.18 -2.847,-0.4 -0.136,-0.22 -0.877,-0.4 -1.646,-0.4 -1.066,0 -1.68,-0.307 -2.577,-1.289 l -1.177,-1.289 v -16.917 c 0,-12.77 0.122,-17.111 0.496,-17.71 0.648,-1.038 6.764,-1.192 7.761,-0.195 m 48.943,-0.235 c 0,0.201 0.735,0.489 1.633,0.641 2.528,0.427 5.167,2.005 5.167,3.09 0,0.387 0.18,0.704 0.4,0.704 0.236,0 0.4,1.416 0.4,3.447 v 3.447 l -1.553,1.553 -1.553,1.553 H 332.647 328 v -6.605 c 0,-7.847 0.123,-8.195 2.896,-8.195 1.047,0 1.904,0.164 1.904,0.365 m 3.2,20.403 c 0,0.203 0.579,0.496 1.287,0.651 1.701,0.374 2.503,0.869 4.468,2.762 l 1.642,1.58 -0.012,4.191 c -0.008,2.928 -0.158,4.239 -0.498,4.352 -0.268,0.09 -0.487,0.431 -0.487,0.758 0,0.772 -0.974,1.738 -1.752,1.738 -0.334,0 -0.752,0.244 -0.928,0.542 -0.606,1.026 -7.016,1.922 -7.842,1.096 -0.241,-0.241 -0.807,-0.44 -1.258,-0.443 -2.079,-0.013 -2.62,-2.118 -2.62,-10.189 V 372 h 4 c 2.2,0 4,0.166 4,0.368"
       stroke="none"
       fill="#8b744c"
       fill-rule="evenodd"
       sodipodi:nodetypes="cscscsssssssccssssssscsssscssscssssssssssccsscccscsccsssssssssscscssscsssscssscsssscccssscsssssscscccsscssscsssccsscccssscccccsscccccccsssscscsc" />
    <path
       id="path3"
       d="m 199.473,255.948 c -0.44345,2.1858 -1.1574,3.70459 -1.66686,5.99709 -0.51068,2.29797 -1.61216,4.30749 -0.66918,7.32291 1.43058,2.48624 0.76858,5.35849 1.3228,8.02178 0.79956,4.37088 0.27236,8.868 1.17465,13.22921 1.26647,0.67052 3.69157,2.48453 4.46386,0.36095 -0.0967,-3.73956 -0.002,-7.4926 -0.0923,-11.23949 0.0472,-2.72242 -0.11024,-5.50478 0.33922,-8.18373 0.21437,-2.18515 2.41465,-4.15395 1.83131,-6.22804 -1.63755,-1.41713 -2.31695,-3.23672 -3.47821,-5.09546 -1.20944,-1.93586 -0.82807,-4.366 -2.09339,-5.9785 -0.97497,-0.0667 -0.84341,1.17937 -1.13186,1.79328 z"
       style="fill:#c8c6ad;fill-opacity:1"
       sodipodi:nodetypes="sscccccccscss" />
    <path
       id="path4"
       style="fill:#442c1c;fill-opacity:1"
       d="m 67.892954,362.73304 c -3.711331,-0.46771 -10.024566,8.33193 -9.726662,0.67955 -3.970592,0.51478 -7.988006,1.99089 -10.792438,3.5603 7.281736,1.52142 5.543035,0.398 5.992272,19.21711 0.178033,7.45802 -5.130227,3.35995 -5.5797,7.44108 3.831211,0.21437 21.851836,2.10967 13.114193,-3.25622 -2.546726,-5.33581 -2.239585,-13.91175 -0.719285,-20.0192 6.659339,-6.35082 13.004059,-1.12376 13.100622,6.51163 0.03461,2.73659 -0.115571,9.08456 -0.499325,13.73997 -0.977931,2.64285 -5.162246,0.94556 -4.011126,3.55858 3.506028,0.24062 12.73988,0.78471 14.472986,-0.74088 -0.495058,-2.65387 -3.190449,-0.37079 -4.264112,-2.26579 -2.146767,-3.78901 -0.322984,-12.9747 -0.383199,-18.20596 -0.09041,-7.85475 14.768847,-5.68097 14.070914,2.78394 -0.503035,6.10109 2.040805,14.02418 -4.100961,17.25964 5.560553,1.01508 11.19322,0.47068 16.017377,0.25669 -3.70624,-2.25616 -6.832756,-6.11844 -5.197948,-11.59037 -0.0106,-6.43108 0.491062,-15.95127 -6.288271,-17.96714 -7.279619,-4.83567 -12.660676,8.21014 -18.699151,0.34776 -1.293652,-1.6844 -4.368325,-1.04127 -6.506186,-1.31069 z M 122.9,362.878 c -6.92633,2.35207 -13.94905,7.14928 -13.68962,14.93617 -0.19171,6.42149 2.5161,15.14685 9.78352,16.56269 6.53872,2.53712 14.6977,-0.16103 18.91599,-5.5528 4.24241,-5.8674 3.95021,-14.17802 0.5182,-20.09612 -4.05979,-4.18436 -9.36247,-6.96756 -15.52809,-5.84994 z m 44.5,-0.11 c -4.96964,-0.60964 -8.48695,7.16752 -10.39925,0.73045 -4.69383,-0.1067 -16.30655,2.84087 -6.61905,6.09126 0.25572,6.77534 2.91773,15.98428 -1.34928,21.78577 -2.31604,0.94139 -3.09375,1.14629 -2.92875,1.68767 0.41367,1.35732 6.18495,0.89306 9.06285,0.84853 3.6411,-0.0563 6.97085,-0.1895 7.27434,-1.30584 0.21226,-0.7808 -0.70976,-0.92931 -3.44289,-1.78 -0.92279,-6.32043 -1.98312,-15.25634 0.71057,-21.25133 8.70719,-5.30711 12.15439,-0.31453 12.59179,12.01355 0.11891,3.35158 -0.0851,6.04661 -0.59475,9.80681 -0.86276,1.02751 -3.82491,0.0666 -4.57532,1.23541 4.65131,2.11799 9.51403,2.12726 16.36812,0.7826 -1.16896,-1.39041 -2.78904,-1.26317 -4.46489,-2.01771 -0.66791,-2.26962 -0.45797,-5.31049 -0.55687,-8.64053 -0.17145,-5.77273 1.38156,-12.51956 -2.89312,-17.19222 -2.0523,-2.12181 -5.26857,-3.30725 -8.1835,-2.79442 z m 35.356,-0.191 c -9.21448,-0.41603 -18.972,8.45609 -14.29999,17.79842 1.9358,3.69629 10.18009,5.27821 2.25971,7.7706 -5.25688,4.58439 7.26067,6.48032 -0.4736,9.9746 -8.16894,3.69066 -2.11198,13.79864 4.73681,14.93361 7.10905,1.1781 13.80967,-1.411 19.10709,-5.52519 6.25527,-4.8581 4.75217,-16.28362 -4.549,-16.58587 -3.26752,-0.10618 -15.68879,0.52442 -10.84707,-5.18438 5.67233,0.21121 11.49923,-3.16923 13.59751,-9.15739 0.68982,-3.80204 -0.38553,-8.42947 4.91345,-8.44522 4.45977,-7.66563 -5.80371,0.27622 -8.91361,-4.11419 -2.05084,-0.25521 -3.45476,-1.14092 -5.5313,-1.46499 z m 31.991,0.562 c -7.2197,1.7592 -13.5361,7.89247 -13.05464,15.6876 0.0703,6.85598 2.96952,13.58065 10.19435,15.69836 8.22826,2.81259 17.87664,-1.83029 20.82613,-9.85774 1.9866,-7.23478 0.82701,-16.7113 -6.96356,-20.03442 -3.65317,-1.80726 -7.33797,-2.75902 -11.00228,-1.4938 z m -107.779,3.969 c 6.41692,2.51965 7.93485,10.89352 6.57923,17.03692 0.82606,9.67194 -12.02812,9.3282 -15.31068,2.02061 -1.57419,-4.6291 -3.75787,-13.33959 0.90701,-18.02591 2.11946,-2.86427 6.31504,-2.00834 7.82444,-1.03162 z m 74.737,-0.217 c 6.13213,2.22925 6.71245,14.14682 -0.542,15.286 -7.01136,0.62772 -10.5651,-13.58646 -2.85938,-15.62324 1.11769,-0.34723 2.37365,-0.2303 3.40138,0.33724 z m 34.917,-0.056 c 7.68377,-0.3672 9.61589,9.2997 9.8474,14.90001 0.68127,7.07862 -7.69599,13.86377 -13.17973,7.48494 -5.42667,-4.80041 -6.80517,-16.61564 -1.30213,-21.27757 1.43093,-0.6413 2.90425,-1.02469 4.63446,-1.10738 z m -32.431,29.713 c 7.45157,0.0686 12.1331,6.47394 6.12807,10.28272 -8.18279,5.19006 -16.33007,3.09945 -18.04632,-3.54161 -0.70537,-5.60169 6.8501,-6.78776 11.91825,-6.74111 z"
       sodipodi:nodetypes="sccscccscccsssccccssccccccccccsssccsccccscccccssssccccccccccccccccccccscccssscs" />
  </g>
</svg>
