<?xml version="1.0" encoding="UTF-8" standalone="no"?>
<svg
   xmlns:dc="http://purl.org/dc/elements/1.1/"
   xmlns:cc="http://creativecommons.org/ns#"
   xmlns:rdf="http://www.w3.org/1999/02/22-rdf-syntax-ns#"
   xmlns:svg="http://www.w3.org/2000/svg"
   xmlns="http://www.w3.org/2000/svg"
   xmlns:sodipodi="http://sodipodi.sourceforge.net/DTD/sodipodi-0.dtd"
   xmlns:inkscape="http://www.inkscape.org/namespaces/inkscape"
   id="svg"
   version="1.1"
   width="400"
   height="179.13043478260872"
   viewBox="0, 0, 400,179.13043478260872"
   sodipodi:docname="sql.svg"
   inkscape:version="1.0.1 (3bc2e813f5, 2020-09-07)">
  <metadata
     id="metadata10">
    <rdf:RDF>
      <cc:Work
         rdf:about="">
        <dc:format>image/svg+xml</dc:format>
        <dc:type
           rdf:resource="http://purl.org/dc/dcmitype/StillImage" />
      </cc:Work>
    </rdf:RDF>
  </metadata>
  <defs
     id="defs8" />
  <sodipodi:namedview
     pagecolor="#ffffff"
     bordercolor="#666666"
     borderopacity="1"
     objecttolerance="10"
     gridtolerance="10"
     guidetolerance="10"
     inkscape:pageopacity="0"
     inkscape:pageshadow="2"
     inkscape:window-width="1290"
     inkscape:window-height="767"
     id="namedview6"
     showgrid="false"
     inkscape:zoom="0.786875"
     inkscape:cx="238.4648"
     inkscape:cy="56.189427"
     inkscape:window-x="0"
     inkscape:window-y="27"
     inkscape:window-maximized="0"
     inkscape:current-layer="svg" />
  <g
     id="svgg">
    <path
       id="path1"
       d="M94.372 0.169 C 94.339 0.262,93.136 0.354,91.686 0.373 C 90.242 0.393,88.388 0.481,87.566 0.569 C 86.745 0.657,85.347 0.808,84.460 0.905 C 83.574 1.002,82.073 1.149,81.125 1.232 C 80.177 1.315,79.315 1.436,79.210 1.501 C 79.105 1.566,78.349 1.701,77.530 1.800 C 76.711 1.900,75.511 2.046,74.862 2.126 C 74.213 2.205,73.584 2.331,73.464 2.406 C 73.343 2.481,72.785 2.618,72.225 2.712 C 69.976 3.088,67.915 3.503,66.099 3.944 C 65.656 4.051,64.971 4.211,64.577 4.297 C 63.603 4.511,62.325 4.855,61.890 5.020 C 61.693 5.094,61.008 5.299,60.367 5.475 C 59.727 5.651,59.122 5.851,59.024 5.920 C 58.925 5.989,58.603 6.087,58.307 6.137 C 57.746 6.233,56.737 6.566,56.205 6.831 C 56.034 6.916,55.786 6.986,55.654 6.986 C 55.398 6.986,53.323 7.771,52.801 8.065 C 52.630 8.161,52.414 8.240,52.322 8.240 C 52.229 8.240,51.523 8.530,50.752 8.884 C 49.981 9.238,49.069 9.647,48.724 9.794 C 48.032 10.089,47.987 10.111,46.574 10.826 C 46.032 11.101,45.468 11.384,45.320 11.456 C 44.563 11.824,43.226 12.605,42.977 12.826 C 42.822 12.964,42.641 13.077,42.576 13.077 C 42.436 13.077,39.565 15.087,38.758 15.750 C 38.449 16.004,37.958 16.392,37.667 16.612 C 36.776 17.286,34.388 19.737,33.608 20.779 C 33.202 21.321,32.730 21.921,32.557 22.112 C 32.385 22.303,32.244 22.555,32.244 22.672 C 32.244 22.789,32.132 22.978,31.995 23.091 C 31.688 23.346,30.452 25.853,30.452 26.221 C 30.452 26.369,30.385 26.532,30.302 26.583 C 30.083 26.719,29.594 28.710,29.382 30.331 C 29.131 32.249,29.128 146.220,29.379 148.641 C 29.573 150.521,29.797 151.525,30.197 152.321 C 30.337 152.600,30.452 152.900,30.452 152.987 C 30.452 154.801,35.272 160.812,38.906 163.529 C 39.724 164.142,40.536 164.759,40.710 164.901 C 40.883 165.043,41.055 165.159,41.092 165.159 C 41.129 165.159,41.632 165.473,42.210 165.857 C 43.178 166.500,44.674 167.372,45.320 167.668 C 45.468 167.736,45.831 167.927,46.126 168.093 C 46.670 168.397,47.053 168.581,49.798 169.853 C 50.636 170.241,51.461 170.633,51.632 170.725 C 51.803 170.816,52.050 170.891,52.181 170.891 C 52.311 170.891,52.836 171.093,53.347 171.339 C 53.857 171.585,54.397 171.787,54.547 171.787 C 54.697 171.787,54.959 171.858,55.130 171.944 C 55.301 172.031,55.884 172.244,56.426 172.417 C 56.968 172.591,57.488 172.802,57.582 172.887 C 57.675 172.971,57.900 173.041,58.082 173.041 C 58.263 173.041,59.234 173.310,60.240 173.638 C 62.343 174.326,63.434 174.619,66.010 175.189 C 68.004 175.631,68.563 175.764,69.068 175.918 C 69.370 176.011,69.869 176.086,70.177 176.086 C 70.484 176.086,70.786 176.167,70.846 176.265 C 70.907 176.364,71.255 176.446,71.618 176.449 C 71.982 176.451,72.602 176.537,72.996 176.639 C 73.686 176.818,75.019 177.024,77.295 177.303 C 77.886 177.376,78.472 177.500,78.596 177.579 C 78.840 177.733,81.550 178.027,84.013 178.165 C 84.850 178.212,85.979 178.333,86.520 178.433 C 87.062 178.533,88.939 178.662,90.691 178.721 C 92.443 178.779,93.919 178.896,93.971 178.979 C 94.108 179.201,109.401 179.174,109.539 178.952 C 109.602 178.849,110.577 178.771,111.833 178.767 C 113.034 178.764,114.622 178.680,115.361 178.581 C 116.099 178.481,117.631 178.321,118.764 178.226 C 121.973 177.957,123.606 177.773,124.675 177.560 C 125.217 177.453,126.305 177.276,127.094 177.167 C 129.294 176.865,131.691 176.445,132.301 176.256 C 132.604 176.163,133.038 176.086,133.266 176.086 C 133.663 176.086,134.158 175.976,135.826 175.519 C 136.245 175.404,136.950 175.248,137.394 175.172 C 138.796 174.931,139.621 174.722,140.024 174.505 C 140.239 174.389,140.617 174.295,140.864 174.295 C 141.111 174.295,141.363 174.214,141.424 174.116 C 141.485 174.017,141.711 173.939,141.927 173.942 C 142.306 173.947,144.798 173.208,145.902 172.763 C 146.198 172.644,147.004 172.371,147.694 172.156 C 148.383 171.941,149.162 171.649,149.423 171.507 C 149.685 171.366,150.028 171.249,150.187 171.249 C 150.345 171.249,150.615 171.174,150.786 171.081 C 151.351 170.776,153.133 169.996,153.264 169.996 C 153.383 169.996,155.769 168.890,156.382 168.550 C 156.529 168.468,157.174 168.135,157.815 167.810 C 158.455 167.485,159.006 167.159,159.039 167.085 C 159.072 167.011,159.175 166.950,159.268 166.950 C 159.489 166.950,162.886 164.812,163.032 164.581 C 163.094 164.483,163.428 164.231,163.776 164.020 C 167.219 161.929,173.041 154.885,173.041 152.810 C 173.041 152.646,173.111 152.436,173.197 152.342 C 173.454 152.061,173.905 150.285,174.059 148.948 C 174.246 147.309,174.249 31.795,174.062 30.273 C 173.880 28.801,173.361 26.953,172.841 25.932 C 172.754 25.761,172.682 25.508,172.682 25.371 C 172.682 25.234,172.562 25.022,172.414 24.899 C 172.266 24.777,172.145 24.557,172.145 24.412 C 172.145 23.019,165.371 15.596,163.425 14.856 C 163.197 14.769,163.009 14.629,163.009 14.544 C 163.009 14.460,162.788 14.278,162.517 14.140 C 162.246 14.003,161.775 13.707,161.470 13.483 C 161.165 13.260,160.829 13.077,160.724 13.077 C 160.618 13.077,160.505 13.004,160.472 12.914 C 160.408 12.741,157.886 11.343,156.113 10.498 C 154.553 9.754,153.133 9.106,152.620 8.904 C 152.373 8.807,151.930 8.626,151.635 8.502 C 151.339 8.379,150.855 8.180,150.560 8.061 C 150.264 7.942,149.781 7.743,149.485 7.619 C 149.189 7.496,148.746 7.311,148.500 7.208 C 148.253 7.106,147.568 6.883,146.977 6.712 C 146.386 6.542,145.826 6.332,145.732 6.247 C 145.639 6.161,145.376 6.090,145.148 6.090 C 144.920 6.090,144.593 6.020,144.422 5.933 C 143.905 5.671,142.341 5.193,142.004 5.194 C 141.830 5.194,141.548 5.123,141.377 5.035 C 140.896 4.788,139.108 4.299,138.687 4.299 C 138.480 4.299,138.261 4.219,138.200 4.120 C 138.139 4.021,137.797 3.941,137.441 3.941 C 137.084 3.941,136.545 3.867,136.242 3.777 C 135.172 3.459,134.068 3.194,133.139 3.031 C 132.622 2.940,131.776 2.793,131.258 2.703 C 130.741 2.614,129.996 2.454,129.601 2.349 C 129.207 2.244,128.507 2.156,128.045 2.154 C 127.582 2.151,127.154 2.069,127.094 1.970 C 127.033 1.872,126.645 1.789,126.232 1.787 C 125.819 1.785,125.153 1.707,124.752 1.614 C 124.004 1.441,121.535 1.147,118.674 0.890 C 117.788 0.810,116.256 0.661,115.271 0.558 C 114.286 0.455,112.412 0.368,111.106 0.365 C 109.647 0.361,108.733 0.289,108.733 0.179 C 108.733 -0.058,94.456 -0.068,94.372 0.169 M110.434 13.258 C 112.306 13.360,114.483 13.533,115.271 13.641 C 116.059 13.750,117.550 13.907,118.585 13.990 C 121.053 14.187,122.923 14.414,124.138 14.662 C 124.680 14.773,125.929 14.995,126.914 15.156 C 129.197 15.528,131.172 15.884,132.199 16.107 C 132.642 16.203,133.247 16.330,133.542 16.389 C 133.838 16.449,134.483 16.609,134.975 16.746 C 135.468 16.884,136.193 17.079,136.588 17.180 C 137.952 17.531,140.530 18.304,140.804 18.444 C 140.956 18.522,141.419 18.643,141.833 18.713 C 142.248 18.783,142.632 18.914,142.688 19.003 C 142.743 19.093,142.946 19.167,143.139 19.167 C 143.331 19.167,143.629 19.239,143.800 19.328 C 143.971 19.416,144.474 19.627,144.917 19.797 C 154.217 23.357,159.761 27.379,161.107 31.542 C 161.366 32.343,161.348 32.608,160.933 34.035 C 160.472 35.619,157.531 38.762,154.981 40.394 C 153.856 41.114,152.720 41.759,151.724 42.242 C 151.084 42.553,150.318 42.969,150.022 43.167 C 149.727 43.365,149.344 43.527,149.172 43.528 C 148.999 43.528,148.858 43.589,148.857 43.663 C 148.857 43.737,148.474 43.946,148.006 44.127 C 147.539 44.308,146.975 44.530,146.753 44.620 C 146.532 44.709,146.129 44.871,145.858 44.979 C 145.587 45.086,145.137 45.288,144.858 45.426 C 144.579 45.565,144.160 45.678,143.928 45.678 C 143.695 45.678,143.455 45.759,143.395 45.858 C 143.334 45.956,143.160 46.037,143.008 46.037 C 142.856 46.037,142.478 46.147,142.168 46.282 C 141.857 46.417,141.240 46.627,140.797 46.747 C 140.354 46.868,139.830 47.055,139.633 47.162 C 139.309 47.338,138.679 47.488,137.125 47.759 C 136.829 47.810,136.426 47.923,136.229 48.009 C 136.032 48.095,135.468 48.255,134.975 48.365 C 134.483 48.475,133.757 48.645,133.363 48.744 C 132.969 48.843,132.176 48.999,131.600 49.092 C 131.024 49.185,130.460 49.319,130.346 49.390 C 130.147 49.514,129.563 49.615,127.004 49.968 C 126.364 50.056,125.613 50.215,125.335 50.322 C 125.058 50.428,124.458 50.515,124.003 50.515 C 123.547 50.515,122.726 50.593,122.178 50.687 C 112.667 52.334,92.934 52.476,83.027 50.970 C 81.944 50.805,80.310 50.599,79.397 50.512 C 78.484 50.425,77.637 50.291,77.516 50.214 C 77.395 50.138,76.852 50.016,76.310 49.943 C 74.662 49.722,72.175 49.239,70.130 48.743 C 68.661 48.387,67.065 47.991,66.458 47.831 C 66.113 47.741,65.431 47.581,64.942 47.477 C 64.454 47.373,63.974 47.208,63.877 47.110 C 63.779 47.012,63.540 46.932,63.345 46.932 C 62.990 46.932,62.027 46.661,61.352 46.370 C 61.155 46.285,60.286 45.973,59.421 45.676 C 58.556 45.380,57.689 45.057,57.495 44.960 C 57.301 44.862,56.983 44.702,56.787 44.604 C 56.591 44.505,56.330 44.425,56.207 44.425 C 55.951 44.425,51.325 42.135,50.246 41.474 C 49.852 41.233,49.278 40.907,48.969 40.749 C 48.661 40.592,48.224 40.266,47.998 40.026 C 47.772 39.785,47.499 39.588,47.392 39.588 C 46.732 39.588,42.633 35.078,42.633 34.352 C 42.633 34.217,42.538 34.012,42.422 33.896 C 42.032 33.506,42.171 31.524,42.650 30.631 C 43.724 28.632,45.097 27.142,47.380 25.496 C 47.971 25.069,48.552 24.640,48.671 24.541 C 48.790 24.443,48.944 24.362,49.013 24.362 C 49.081 24.362,49.387 24.174,49.692 23.943 C 50.178 23.576,54.292 21.512,55.262 21.148 C 55.459 21.074,56.064 20.802,56.605 20.543 C 57.147 20.285,57.813 20.021,58.085 19.958 C 58.357 19.895,58.624 19.772,58.678 19.685 C 58.732 19.597,58.934 19.525,59.126 19.525 C 59.319 19.525,59.616 19.454,59.787 19.367 C 60.238 19.139,62.321 18.447,63.054 18.282 C 63.399 18.205,64.124 17.969,64.666 17.759 C 65.208 17.548,65.828 17.376,66.044 17.376 C 66.260 17.376,66.486 17.295,66.547 17.197 C 66.608 17.098,66.941 17.017,67.286 17.017 C 67.632 17.017,68.090 16.921,68.306 16.804 C 68.521 16.686,69.060 16.529,69.503 16.454 C 69.946 16.379,70.712 16.231,71.205 16.125 C 71.697 16.020,72.785 15.809,73.623 15.657 C 74.460 15.505,75.549 15.302,76.041 15.207 C 76.534 15.112,77.498 14.960,78.184 14.868 C 78.870 14.777,79.797 14.623,80.244 14.525 C 81.560 14.237,83.843 13.970,84.972 13.971 C 85.549 13.972,86.718 13.854,87.569 13.710 C 90.928 13.140,103.673 12.888,110.434 13.258 M44.185 52.973 C 45.386 53.716,48.739 55.429,49.888 55.888 C 50.085 55.966,50.698 56.240,51.249 56.497 C 51.801 56.754,52.387 56.964,52.551 56.964 C 52.714 56.964,52.989 57.039,53.160 57.131 C 53.950 57.557,54.718 57.859,55.010 57.859 C 55.186 57.859,55.380 57.940,55.441 58.039 C 55.502 58.137,55.732 58.218,55.953 58.218 C 56.174 58.218,56.442 58.305,56.549 58.412 C 56.656 58.519,57.296 58.757,57.973 58.943 C 60.671 59.681,61.904 60.049,62.201 60.205 C 62.372 60.294,62.625 60.367,62.762 60.367 C 62.900 60.367,63.405 60.485,63.884 60.630 C 64.364 60.774,65.441 61.064,66.279 61.274 C 67.722 61.635,68.187 61.728,70.612 62.133 C 71.173 62.227,71.718 62.357,71.822 62.421 C 72.003 62.533,73.165 62.712,75.787 63.031 C 76.436 63.110,77.042 63.222,77.134 63.278 C 77.508 63.510,81.988 64.061,84.819 64.223 C 85.705 64.274,86.995 64.391,87.685 64.482 C 93.141 65.209,111.172 65.213,115.808 64.490 C 116.399 64.397,117.649 64.280,118.585 64.229 C 120.662 64.115,123.058 63.854,123.421 63.702 C 123.569 63.640,124.375 63.506,125.213 63.405 C 126.050 63.303,127.219 63.146,127.810 63.055 C 128.401 62.964,129.469 62.811,130.183 62.714 C 130.897 62.618,131.566 62.486,131.671 62.421 C 131.775 62.357,132.279 62.236,132.791 62.153 C 133.852 61.980,135.847 61.563,137.035 61.266 C 137.479 61.155,138.164 60.992,138.558 60.905 C 139.733 60.643,140.950 60.274,141.087 60.137 C 141.157 60.067,141.393 60.009,141.610 60.009 C 141.828 60.009,142.623 59.807,143.377 59.561 C 144.132 59.315,144.894 59.113,145.072 59.113 C 145.250 59.113,145.450 59.058,145.518 58.991 C 145.654 58.854,146.520 58.526,147.873 58.098 C 148.862 57.785,149.856 57.396,150.333 57.134 C 150.505 57.040,150.751 56.964,150.882 56.964 C 151.013 56.964,151.537 56.762,152.048 56.516 C 152.559 56.270,153.037 56.068,153.112 56.069 C 153.231 56.070,155.341 55.085,156.292 54.584 C 158.078 53.644,158.708 53.304,159.248 52.987 C 160.706 52.132,161.113 51.957,161.225 52.138 C 161.476 52.545,161.306 71.705,161.043 72.548 C 160.506 74.275,158.876 76.302,156.698 77.951 C 155.097 79.163,154.725 79.420,154.053 79.780 C 153.708 79.965,153.386 80.167,153.336 80.228 C 153.181 80.423,149.568 82.302,148.679 82.651 C 148.531 82.709,148.289 82.828,148.142 82.916 C 147.783 83.129,147.164 83.382,146.082 83.760 C 145.589 83.931,145.109 84.139,145.016 84.221 C 144.922 84.304,144.676 84.371,144.469 84.371 C 144.262 84.371,144.017 84.438,143.923 84.520 C 143.829 84.602,143.027 84.893,142.141 85.166 C 141.254 85.439,140.264 85.775,139.940 85.912 C 139.617 86.050,139.158 86.162,138.921 86.162 C 138.684 86.162,138.440 86.243,138.379 86.341 C 138.318 86.440,138.030 86.520,137.739 86.520 C 137.448 86.520,137.070 86.592,136.899 86.678 C 136.476 86.893,135.166 87.234,134.080 87.413 C 133.587 87.494,132.700 87.691,132.109 87.851 C 130.796 88.206,129.413 88.471,127.989 88.639 C 127.398 88.708,126.794 88.841,126.648 88.934 C 126.501 89.027,125.735 89.164,124.946 89.239 C 124.157 89.315,122.987 89.449,122.347 89.539 C 121.706 89.628,120.296 89.790,119.212 89.900 C 118.128 90.010,116.758 90.177,116.167 90.271 C 114.034 90.612,110.280 90.730,101.657 90.728 C 92.067 90.726,87.964 90.495,81.236 89.581 C 80.546 89.487,79.228 89.324,78.307 89.219 C 77.386 89.114,76.540 88.970,76.427 88.899 C 76.313 88.828,75.817 88.710,75.325 88.637 C 72.833 88.266,72.239 88.155,71.775 87.972 C 71.498 87.863,70.999 87.774,70.666 87.774 C 70.334 87.774,70.017 87.702,69.962 87.614 C 69.908 87.526,69.561 87.412,69.191 87.360 C 68.254 87.230,66.694 86.816,66.532 86.655 C 66.458 86.581,66.128 86.520,65.798 86.520 C 65.469 86.520,65.059 86.451,64.888 86.365 C 64.309 86.077,63.326 85.759,62.739 85.672 C 62.418 85.624,62.111 85.513,62.057 85.426 C 62.003 85.338,61.777 85.266,61.555 85.266 C 61.334 85.266,60.996 85.148,60.805 85.003 C 60.613 84.859,60.280 84.738,60.064 84.735 C 59.848 84.732,59.622 84.648,59.561 84.550 C 59.500 84.451,59.293 84.371,59.100 84.371 C 58.908 84.371,58.610 84.298,58.439 84.210 C 58.268 84.122,57.765 83.910,57.322 83.741 C 56.879 83.571,56.355 83.370,56.158 83.294 C 55.765 83.142,53.823 82.268,53.359 82.035 C 47.521 79.097,44.176 76.336,42.625 73.175 L 42.185 72.279 42.133 62.517 C 42.104 57.147,42.127 52.565,42.185 52.335 C 42.311 51.830,42.366 51.847,44.185 52.973 M289.266 54.104 C 289.101 54.200,288.336 54.323,287.564 54.377 C 286.793 54.430,285.880 54.546,285.535 54.635 C 285.190 54.723,284.263 54.964,283.475 55.171 C 282.687 55.378,281.785 55.614,281.471 55.696 C 281.157 55.779,280.547 56.017,280.116 56.226 C 279.684 56.435,279.249 56.605,279.149 56.605 C 279.049 56.605,278.387 56.888,277.678 57.232 C 276.970 57.577,276.339 57.859,276.277 57.859 C 276.215 57.859,275.900 58.061,275.577 58.307 C 275.255 58.554,274.917 58.755,274.828 58.755 C 274.641 58.755,271.905 60.630,270.578 61.668 C 269.229 62.722,265.911 66.024,264.775 67.442 C 264.222 68.131,263.631 68.851,263.459 69.041 C 263.288 69.231,263.101 69.534,263.044 69.714 C 262.987 69.893,262.865 70.040,262.773 70.040 C 262.682 70.040,262.606 70.161,262.606 70.309 C 262.606 70.457,262.526 70.578,262.427 70.578 C 262.329 70.578,262.248 70.672,262.248 70.788 C 262.248 70.903,262.133 71.125,261.992 71.280 C 261.722 71.579,260.859 73.104,260.363 74.160 C 260.201 74.505,259.994 74.908,259.903 75.056 C 259.812 75.204,259.690 75.446,259.630 75.593 C 259.571 75.741,259.405 76.144,259.261 76.489 C 258.764 77.680,258.665 77.924,258.513 78.325 C 258.103 79.411,257.901 80.044,257.756 80.699 C 257.669 81.093,257.469 81.979,257.311 82.669 C 257.153 83.359,256.998 84.177,256.965 84.488 C 256.933 84.799,256.825 85.484,256.725 86.011 C 256.174 88.907,256.206 95.114,256.786 97.806 C 256.924 98.446,257.131 99.454,257.246 100.045 C 257.475 101.215,258.509 104.504,258.965 105.508 C 260.447 108.777,262.113 111.640,263.699 113.645 C 266.557 117.259,271.680 122.167,272.593 122.167 C 272.669 122.167,272.948 122.369,273.214 122.615 C 273.480 122.862,273.745 123.063,273.803 123.063 C 273.861 123.063,274.328 123.329,274.841 123.655 C 275.747 124.230,279.260 125.999,280.161 126.334 C 280.408 126.425,280.837 126.613,281.116 126.752 C 281.395 126.891,281.779 127.004,281.969 127.004 C 282.160 127.004,282.465 127.097,282.648 127.211 C 283.568 127.786,283.565 127.819,283.565 119.335 C 283.565 111.050,283.549 110.882,282.761 110.882 C 282.680 110.882,282.349 110.681,282.026 110.434 C 281.703 110.188,281.389 109.987,281.327 109.987 C 280.426 109.987,274.790 103.849,274.788 102.866 C 274.788 102.743,274.727 102.641,274.653 102.640 C 274.579 102.639,274.359 102.296,274.163 101.879 C 273.967 101.461,273.766 101.079,273.715 101.030 C 273.481 100.802,272.996 99.713,272.996 99.414 C 272.996 99.231,272.915 99.031,272.817 98.970 C 272.718 98.909,272.638 98.598,272.638 98.279 C 272.638 97.959,272.564 97.622,272.474 97.528 C 271.528 96.546,271.799 87.357,272.832 85.403 C 272.922 85.232,272.996 84.962,272.996 84.804 C 272.996 84.645,273.108 84.302,273.246 84.040 C 273.383 83.779,273.718 83.000,273.990 82.311 C 274.262 81.621,274.553 80.980,274.636 80.887 C 274.719 80.793,274.787 80.578,274.787 80.409 C 274.787 80.240,274.850 80.075,274.928 80.042 C 275.005 80.009,275.420 79.418,275.850 78.728 C 276.281 78.039,276.684 77.434,276.746 77.385 C 276.808 77.335,277.152 76.892,277.509 76.399 C 278.920 74.457,284.210 70.040,285.126 70.040 C 285.201 70.040,285.666 69.846,286.160 69.609 C 287.478 68.975,288.530 68.607,289.021 68.607 C 289.260 68.607,289.497 68.539,289.549 68.455 C 290.063 67.623,299.036 68.073,299.946 68.976 C 300.040 69.069,300.271 69.145,300.459 69.145 C 301.464 69.145,304.846 71.409,306.989 73.516 C 309.476 75.961,310.968 78.074,312.504 81.326 C 312.853 82.064,313.215 82.809,313.309 82.980 C 313.403 83.151,313.480 83.437,313.480 83.616 C 313.480 83.795,313.549 84.017,313.634 84.111 C 315.118 85.747,315.099 98.216,313.611 99.704 C 313.539 99.777,313.480 99.985,313.480 100.167 C 313.480 100.349,313.411 100.637,313.327 100.809 C 313.243 100.980,312.743 102.006,312.216 103.090 C 311.689 104.174,310.871 105.605,310.398 106.270 C 309.926 106.936,309.539 107.520,309.539 107.569 C 309.539 107.833,306.295 110.852,305.687 111.153 C 305.293 111.348,304.769 111.635,304.523 111.791 C 303.893 112.190,302.114 112.712,301.622 112.642 L 301.209 112.584 301.161 107.882 C 301.125 104.298,301.061 103.180,300.893 103.181 C 300.771 103.182,297.891 103.162,294.492 103.136 L 288.312 103.090 288.312 120.639 L 288.312 138.188 295.029 138.162 L 301.747 138.136 301.836 133.720 L 301.926 129.305 302.904 128.961 C 303.442 128.771,304.062 128.616,304.282 128.616 C 304.501 128.616,304.731 128.536,304.792 128.437 C 304.853 128.339,305.084 128.258,305.306 128.258 C 305.528 128.258,306.128 128.056,306.638 127.810 C 307.149 127.564,307.649 127.362,307.749 127.362 C 307.849 127.362,308.071 127.289,308.242 127.200 C 308.414 127.110,309.118 126.763,309.807 126.427 C 312.234 125.247,315.083 123.496,315.719 122.793 C 315.817 122.684,316.220 122.368,316.614 122.090 C 317.441 121.508,321.361 117.560,321.361 117.310 C 321.361 117.218,321.598 116.882,321.886 116.565 C 322.495 115.896,324.407 113.260,324.407 113.091 C 324.407 113.028,324.592 112.727,324.818 112.422 C 325.190 111.922,327.317 107.733,327.646 106.852 C 327.891 106.199,328.654 103.820,328.882 103.000 C 329.005 102.557,329.218 101.837,329.354 101.401 C 329.490 100.965,329.601 100.410,329.601 100.168 C 329.601 99.926,329.681 99.437,329.778 99.080 C 330.021 98.188,330.296 90.801,330.124 89.774 C 330.047 89.314,329.939 88.133,329.885 87.147 C 329.779 85.234,329.639 84.302,329.158 82.311 C 328.992 81.621,328.789 80.734,328.708 80.340 C 328.533 79.488,328.209 78.331,328.006 77.833 C 327.925 77.635,327.762 77.152,327.643 76.758 C 327.524 76.364,327.317 75.799,327.183 75.504 C 326.425 73.831,325.765 72.515,325.205 71.563 C 324.857 70.972,324.520 70.367,324.455 70.219 C 324.292 69.850,322.276 67.000,321.821 66.497 C 318.643 62.980,315.999 60.702,313.027 58.919 C 311.405 57.946,310.859 57.661,309.360 57.004 C 307.665 56.261,307.148 56.069,305.867 55.707 C 305.571 55.624,304.886 55.425,304.344 55.266 C 303.144 54.912,301.850 54.668,299.955 54.437 C 299.167 54.341,298.178 54.185,297.758 54.091 C 296.759 53.865,289.656 53.877,289.266 54.104 M337.389 55.031 C 337.174 55.591,337.395 113.999,337.614 114.554 C 337.731 114.850,337.959 115.613,338.123 116.250 C 339.078 119.981,343.858 126.108,345.813 126.108 C 345.961 126.108,346.082 126.189,346.082 126.288 C 346.082 126.386,346.225 126.467,346.400 126.467 C 346.575 126.467,346.877 126.577,347.072 126.712 C 348.032 127.379,351.133 127.548,361.515 127.498 L 371.249 127.452 371.296 119.879 C 371.333 113.912,371.295 112.289,371.117 112.229 C 370.993 112.187,369.037 112.112,366.771 112.063 C 357.261 111.856,354.153 110.322,353.037 105.284 C 352.955 104.915,352.811 104.270,352.717 103.851 C 352.613 103.388,352.543 93.663,352.538 79.042 L 352.530 54.993 345.410 54.991 C 341.494 54.989,338.109 54.940,337.888 54.881 C 337.627 54.811,337.453 54.863,337.389 55.031 M220.495 55.176 C 219.551 55.248,218.609 55.398,218.402 55.508 C 218.196 55.619,217.744 55.710,217.398 55.710 C 217.053 55.710,216.720 55.790,216.659 55.889 C 216.598 55.987,216.367 56.068,216.145 56.068 C 215.924 56.068,215.586 56.186,215.395 56.331 C 215.203 56.476,214.881 56.597,214.677 56.600 C 213.980 56.611,210.402 58.578,208.994 59.725 C 208.166 60.399,206.158 63.089,205.839 63.950 C 205.711 64.295,205.537 64.738,205.452 64.935 C 204.943 66.118,204.759 69.929,205.113 71.936 C 205.552 74.418,205.947 76.074,206.351 77.116 C 206.427 77.313,206.634 77.909,206.810 78.441 C 207.320 79.980,208.879 82.908,209.627 83.733 C 209.800 83.924,209.942 84.153,209.942 84.242 C 209.942 85.264,217.051 92.728,221.227 96.091 C 221.994 96.709,223.192 97.726,224.301 98.701 C 224.995 99.312,224.998 99.314,227.228 101.107 C 235.144 107.472,236.406 110.923,231.527 112.865 C 231.330 112.943,230.927 113.046,230.631 113.094 C 230.336 113.141,229.772 113.262,229.378 113.363 C 227.136 113.934,219.005 114.047,213.166 113.588 C 210.865 113.407,208.004 113.222,206.449 113.153 L 205.732 113.121 205.685 120.427 L 205.639 127.732 218.135 127.653 C 230.342 127.575,232.604 127.501,232.951 127.167 C 233.045 127.078,233.327 127.004,233.578 127.005 C 234.029 127.006,235.534 126.571,236.137 126.266 C 236.308 126.179,236.563 126.108,236.703 126.108 C 236.935 126.108,237.329 125.931,239.635 124.786 C 241.088 124.064,244.297 121.673,245.231 120.616 C 246.078 119.657,246.873 118.624,247.121 118.161 C 247.233 117.951,247.498 117.497,247.709 117.152 C 247.921 116.807,248.141 116.404,248.198 116.256 C 248.255 116.108,248.360 115.867,248.432 115.719 C 248.503 115.571,248.706 114.966,248.883 114.375 C 249.060 113.784,249.282 113.040,249.377 112.723 C 249.618 111.918,249.607 106.167,249.365 105.714 C 249.258 105.515,249.172 105.081,249.172 104.748 C 249.172 104.416,249.053 103.987,248.909 103.796 C 248.764 103.605,248.643 103.306,248.640 103.132 C 248.637 102.959,248.560 102.676,248.470 102.505 C 248.380 102.334,248.108 101.751,247.866 101.209 C 247.443 100.265,245.324 96.738,245.067 96.552 C 244.999 96.502,244.707 96.140,244.419 95.746 C 243.406 94.361,239.266 90.187,237.976 89.250 C 237.582 88.964,236.918 88.414,236.502 88.028 C 236.085 87.642,235.166 86.883,234.459 86.341 C 233.752 85.799,232.682 84.950,232.082 84.454 C 231.481 83.958,230.370 83.091,229.613 82.527 C 228.855 81.963,228.130 81.400,228.000 81.277 C 227.871 81.153,227.524 80.900,227.228 80.713 C 225.549 79.654,221.217 75.495,220.495 74.250 C 219.437 72.423,220.056 70.878,222.353 69.616 C 222.824 69.357,223.352 69.145,223.526 69.145 C 223.700 69.145,223.939 69.048,224.057 68.930 C 224.966 68.021,238.261 67.666,242.633 68.433 C 243.126 68.520,244.295 68.614,245.231 68.644 L 246.932 68.697 246.939 62.069 C 246.942 58.424,246.914 55.340,246.875 55.217 C 246.796 54.966,223.723 54.930,220.495 55.176 M43.081 91.190 C 43.377 91.392,43.780 91.636,43.977 91.732 C 44.174 91.828,44.738 92.141,45.231 92.426 C 46.199 92.988,46.666 93.223,48.724 94.184 C 50.437 94.984,50.736 95.109,53.292 96.100 C 55.844 97.090,56.423 97.292,57.009 97.399 C 57.279 97.448,57.501 97.550,57.501 97.627 C 57.501 97.703,57.723 97.809,57.994 97.862 C 58.548 97.971,59.958 98.342,60.367 98.487 C 60.971 98.700,63.718 99.444,64.219 99.529 C 64.514 99.580,64.917 99.686,65.114 99.765 C 65.311 99.845,66.117 100.049,66.906 100.219 C 67.694 100.389,68.524 100.601,68.750 100.690 C 68.976 100.778,69.379 100.852,69.646 100.853 C 69.912 100.854,70.526 100.975,71.009 101.122 C 71.493 101.268,72.172 101.388,72.519 101.388 C 72.866 101.388,73.397 101.463,73.700 101.555 C 74.002 101.646,74.895 101.809,75.683 101.917 C 76.471 102.025,77.841 102.228,78.728 102.368 C 82.002 102.884,82.970 103.001,84.061 103.008 C 84.675 103.013,85.540 103.095,85.983 103.191 C 88.643 103.768,105.570 104.020,112.853 103.590 C 117.158 103.336,121.554 102.887,124.765 102.372 C 125.652 102.230,127.022 102.025,127.810 101.917 C 128.598 101.809,129.491 101.646,129.793 101.555 C 130.096 101.463,130.627 101.388,130.974 101.388 C 131.321 101.388,132.000 101.268,132.484 101.122 C 132.967 100.975,133.626 100.854,133.948 100.853 C 134.269 100.852,134.672 100.780,134.843 100.693 C 135.198 100.513,136.646 100.140,139.095 99.598 C 139.489 99.511,140.255 99.305,140.797 99.140 C 141.339 98.975,142.024 98.799,142.320 98.748 C 142.615 98.698,142.938 98.595,143.036 98.520 C 143.135 98.445,143.558 98.327,143.976 98.258 C 144.394 98.189,144.782 98.059,144.837 97.969 C 144.893 97.879,145.130 97.806,145.365 97.806 C 145.600 97.806,145.841 97.725,145.902 97.627 C 145.963 97.528,146.167 97.447,146.355 97.447 C 146.663 97.447,147.540 97.125,148.363 96.709 C 148.534 96.622,148.791 96.552,148.933 96.552 C 149.076 96.552,149.702 96.342,150.324 96.085 C 150.946 95.828,151.617 95.551,151.814 95.470 C 153.167 94.912,153.824 94.617,155.531 93.804 C 156.590 93.300,157.456 92.825,157.456 92.749 C 157.456 92.673,157.618 92.611,157.815 92.611 C 158.012 92.611,158.173 92.538,158.173 92.449 C 158.173 92.360,158.395 92.201,158.665 92.096 C 158.936 91.991,159.588 91.654,160.114 91.347 C 160.639 91.041,161.123 90.844,161.189 90.909 C 161.428 91.149,161.326 111.025,161.084 111.267 C 160.961 111.391,160.860 111.627,160.860 111.793 C 160.860 112.532,158.554 115.351,156.998 116.515 C 156.610 116.806,156.252 117.091,156.202 117.149 C 156.062 117.314,153.511 118.936,152.354 119.597 C 151.217 120.245,147.779 121.880,146.261 122.493 C 145.255 122.900,141.796 124.115,141.245 124.256 C 141.048 124.306,140.725 124.417,140.528 124.503 C 140.150 124.667,139.152 124.963,138.110 125.218 C 137.765 125.303,137.000 125.505,136.408 125.667 C 135.817 125.829,134.971 126.028,134.528 126.108 C 134.084 126.189,133.238 126.385,132.647 126.544 C 131.234 126.925,129.830 127.190,128.616 127.305 C 128.074 127.356,127.550 127.463,127.452 127.544 C 127.277 127.686,125.672 127.956,123.153 128.266 C 116.017 129.145,114.435 129.290,109.897 129.485 C 105.548 129.673,91.711 129.569,90.372 129.340 C 89.781 129.239,88.764 129.155,88.112 129.155 C 87.461 129.154,86.493 129.070,85.963 128.968 C 85.432 128.866,84.232 128.700,83.296 128.599 C 82.360 128.498,81.030 128.339,80.340 128.244 C 79.651 128.150,78.603 128.030,78.012 127.978 C 77.421 127.925,76.695 127.799,76.399 127.698 C 75.889 127.522,75.534 127.453,72.996 127.035 C 72.405 126.938,71.694 126.770,71.417 126.662 C 71.140 126.555,70.641 126.467,70.308 126.467 C 69.975 126.467,69.653 126.386,69.592 126.288 C 69.532 126.189,69.284 126.108,69.042 126.108 C 68.801 126.108,68.019 125.940,67.306 125.733 C 66.593 125.527,65.728 125.290,65.383 125.208 C 64.440 124.982,63.573 124.732,62.875 124.485 C 62.530 124.363,62.087 124.207,61.890 124.138 C 61.693 124.069,61.249 123.910,60.905 123.786 C 60.560 123.661,60.055 123.519,59.783 123.470 C 59.511 123.420,59.244 123.309,59.190 123.222 C 59.136 123.134,58.935 123.063,58.742 123.063 C 58.549 123.063,58.252 122.986,58.081 122.893 C 57.910 122.799,57.447 122.588,57.053 122.424 C 55.180 121.643,53.516 120.911,53.202 120.729 C 53.054 120.644,52.288 120.238,51.500 119.826 C 50.712 119.415,49.845 118.961,49.575 118.818 C 49.304 118.676,49.082 118.498,49.082 118.423 C 49.082 118.348,48.860 118.173,48.589 118.033 C 46.523 116.970,43.597 114.109,42.833 112.405 C 42.700 112.109,42.500 111.706,42.388 111.509 C 42.183 111.147,41.978 91.564,42.174 91.054 C 42.296 90.736,42.452 90.759,43.081 91.190 M42.798 129.762 C 42.954 129.900,43.363 130.169,43.708 130.360 C 44.053 130.551,44.819 130.974,45.410 131.301 C 46.001 131.627,46.511 131.963,46.544 132.046 C 46.577 132.130,46.705 132.199,46.828 132.199 C 46.951 132.199,47.632 132.481,48.341 132.826 C 49.049 133.171,49.665 133.453,49.709 133.453 C 49.753 133.453,50.254 133.663,50.824 133.919 C 52.207 134.543,52.413 134.624,53.560 134.996 C 54.102 135.172,54.622 135.381,54.716 135.459 C 54.809 135.538,55.039 135.602,55.225 135.602 C 55.412 135.602,55.819 135.735,56.130 135.897 C 57.200 136.454,57.319 136.498,57.747 136.498 C 57.983 136.498,58.408 136.618,58.690 136.766 C 58.972 136.913,59.339 137.034,59.506 137.034 C 59.672 137.035,59.859 137.116,59.919 137.215 C 59.980 137.313,60.303 137.394,60.636 137.394 C 60.969 137.394,61.292 137.474,61.352 137.573 C 61.413 137.671,61.640 137.752,61.856 137.751 C 62.071 137.751,62.611 137.870,63.054 138.016 C 63.498 138.163,64.545 138.451,65.383 138.657 C 66.220 138.863,67.228 139.111,67.622 139.208 C 68.016 139.305,68.810 139.460,69.385 139.553 C 69.961 139.646,70.510 139.770,70.605 139.829 C 70.829 139.967,71.835 140.137,76.220 140.779 C 76.811 140.865,77.779 141.021,78.370 141.125 C 80.481 141.496,82.062 141.693,82.925 141.693 C 83.407 141.693,84.434 141.814,85.206 141.961 C 85.978 142.109,87.522 142.230,88.637 142.230 C 89.752 142.230,90.817 142.312,91.004 142.412 C 91.464 142.658,110.772 142.660,112.226 142.414 C 112.817 142.314,113.986 142.230,114.823 142.228 C 115.661 142.225,116.870 142.142,117.510 142.043 C 118.150 141.944,119.521 141.785,120.555 141.689 C 122.956 141.467,125.689 141.092,128.348 140.618 C 128.840 140.531,129.848 140.364,130.587 140.248 C 131.326 140.132,132.253 139.958,132.647 139.860 C 133.041 139.762,133.766 139.615,134.259 139.533 C 135.114 139.391,135.575 139.286,137.394 138.819 C 137.837 138.705,138.522 138.532,138.916 138.435 C 140.237 138.111,141.600 137.709,141.914 137.550 C 142.085 137.464,142.367 137.394,142.541 137.394 C 142.907 137.395,145.753 136.552,146.213 136.306 C 146.384 136.214,146.637 136.140,146.775 136.140 C 146.913 136.140,147.257 136.019,147.539 135.872 C 147.821 135.725,148.177 135.604,148.330 135.603 C 148.482 135.603,148.684 135.538,148.777 135.460 C 148.871 135.381,149.270 135.211,149.664 135.081 C 150.058 134.951,150.663 134.725,151.008 134.578 C 151.808 134.238,152.156 134.098,153.201 133.693 C 153.669 133.511,154.052 133.303,154.052 133.229 C 154.053 133.155,154.183 133.094,154.343 133.094 C 154.502 133.094,155.369 132.705,156.268 132.228 C 159.967 130.270,160.780 129.827,160.973 129.669 C 161.458 129.272,161.516 146.140,161.035 147.783 C 160.520 149.542,158.116 152.259,155.486 154.055 C 155.141 154.291,154.819 154.533,154.769 154.595 C 154.720 154.656,154.559 154.763,154.411 154.832 C 154.263 154.902,153.578 155.278,152.888 155.668 C 150.899 156.793,146.887 158.710,146.522 158.710 C 146.425 158.710,146.205 158.789,146.034 158.886 C 145.456 159.211,143.448 159.955,142.835 160.070 C 142.500 160.133,142.182 160.255,142.128 160.343 C 142.074 160.430,141.809 160.502,141.539 160.502 C 141.269 160.502,140.971 160.568,140.878 160.650 C 140.784 160.731,140.345 160.902,139.901 161.029 C 139.458 161.156,138.692 161.379,138.200 161.524 C 136.773 161.943,136.271 162.076,135.602 162.209 C 135.258 162.278,134.895 162.395,134.796 162.469 C 134.698 162.542,134.254 162.660,133.811 162.730 C 132.298 162.969,131.393 163.139,130.587 163.335 C 130.143 163.444,129.297 163.619,128.706 163.726 C 128.115 163.832,127.268 164.003,126.825 164.105 C 126.382 164.207,125.374 164.366,124.586 164.457 C 123.798 164.549,122.588 164.706,121.899 164.805 C 121.209 164.904,119.699 165.059,118.542 165.150 C 117.386 165.240,116.353 165.368,116.248 165.433 C 115.072 166.160,91.650 166.143,87.237 165.412 C 86.399 165.274,85.212 165.160,84.597 165.160 C 83.983 165.159,83.137 165.083,82.716 164.989 C 81.737 164.771,79.320 164.414,78.280 164.333 C 77.837 164.298,77.112 164.192,76.668 164.096 C 76.225 164.001,75.419 163.844,74.877 163.749 C 74.335 163.654,73.408 163.478,72.817 163.360 C 72.226 163.241,71.439 163.105,71.069 163.058 C 70.699 163.010,70.352 162.899,70.297 162.811 C 70.243 162.723,69.931 162.651,69.604 162.651 C 69.277 162.651,68.720 162.530,68.366 162.382 C 68.012 162.235,67.518 162.114,67.267 162.114 C 67.016 162.114,66.671 162.041,66.500 161.951 C 66.062 161.722,63.618 161.009,62.918 160.906 C 62.597 160.859,62.290 160.749,62.236 160.661 C 62.182 160.573,62.013 160.502,61.862 160.502 C 61.710 160.502,61.332 160.393,61.021 160.260 C 60.711 160.127,59.772 159.793,58.934 159.517 C 58.097 159.242,56.968 158.820,56.426 158.581 C 55.884 158.342,55.159 158.021,54.814 157.869 C 48.495 155.071,44.629 152.097,42.633 148.501 L 42.185 147.694 42.133 139.006 C 42.074 129.219,42.081 129.127,42.798 129.762 "
       stroke="none"
       fill="#329bdc"
       fill-rule="evenodd" />
  </g>
</svg>
